<mxfile host="app.diagrams.net" modified="2020-04-03T06:44:23.477Z" agent="Mozilla/5.0 (Windows NT 10.0; WOW64) AppleWebKit/537.36 (KHTML, like Gecko) Chrome/80.0.3987.149 Safari/537.36" etag="r1A5w_Z93UveJXyhyMCy" version="12.9.3" type="github" pages="3">
  <diagram id="D2KpiAwgiJkYozEt_yPz" name="Page-1">
    <mxGraphModel dx="1296" dy="685" grid="1" gridSize="10" guides="1" tooltips="1" connect="1" arrows="1" fold="1" page="1" pageScale="1" pageWidth="827" pageHeight="1169" math="0" shadow="0">
      <root>
        <mxCell id="zswCxuWQj6QQBfK_JD7G-0" />
        <mxCell id="zswCxuWQj6QQBfK_JD7G-1" parent="zswCxuWQj6QQBfK_JD7G-0" />
        <mxCell id="Nf-H6jkIH7w6b1b2WMMu-28" value="" style="rounded=0;whiteSpace=wrap;html=1;dashed=1;" parent="zswCxuWQj6QQBfK_JD7G-1" vertex="1">
          <mxGeometry x="30" y="250" width="440" height="40" as="geometry" />
        </mxCell>
        <mxCell id="-bWIcoS8LJO7vBeeIRkM-13" style="edgeStyle=orthogonalEdgeStyle;rounded=0;orthogonalLoop=1;jettySize=auto;html=1;exitX=1;exitY=0.5;exitDx=0;exitDy=0;entryX=0;entryY=0.5;entryDx=0;entryDy=0;" parent="zswCxuWQj6QQBfK_JD7G-1" source="-bWIcoS8LJO7vBeeIRkM-0" target="-bWIcoS8LJO7vBeeIRkM-1" edge="1">
          <mxGeometry relative="1" as="geometry" />
        </mxCell>
        <mxCell id="-bWIcoS8LJO7vBeeIRkM-0" value="Description" style="rounded=0;whiteSpace=wrap;html=1;fillColor=#f8cecc;strokeColor=#b85450;" parent="zswCxuWQj6QQBfK_JD7G-1" vertex="1">
          <mxGeometry x="65" y="120" width="70" height="40" as="geometry" />
        </mxCell>
        <mxCell id="-bWIcoS8LJO7vBeeIRkM-5" value="" style="edgeStyle=orthogonalEdgeStyle;rounded=0;orthogonalLoop=1;jettySize=auto;html=1;" parent="zswCxuWQj6QQBfK_JD7G-1" source="-bWIcoS8LJO7vBeeIRkM-1" target="-bWIcoS8LJO7vBeeIRkM-4" edge="1">
          <mxGeometry relative="1" as="geometry" />
        </mxCell>
        <mxCell id="-bWIcoS8LJO7vBeeIRkM-1" value="" style="rounded=0;whiteSpace=wrap;html=1;fillColor=#fff2cc;strokeColor=#d6b656;" parent="zswCxuWQj6QQBfK_JD7G-1" vertex="1">
          <mxGeometry x="155" y="40" width="20" height="200" as="geometry" />
        </mxCell>
        <mxCell id="-bWIcoS8LJO7vBeeIRkM-8" style="edgeStyle=orthogonalEdgeStyle;rounded=0;orthogonalLoop=1;jettySize=auto;html=1;exitX=1;exitY=0.5;exitDx=0;exitDy=0;entryX=0;entryY=0.5;entryDx=0;entryDy=0;" parent="zswCxuWQj6QQBfK_JD7G-1" source="-bWIcoS8LJO7vBeeIRkM-4" target="-bWIcoS8LJO7vBeeIRkM-6" edge="1">
          <mxGeometry relative="1" as="geometry">
            <mxPoint x="228.75" y="140" as="sourcePoint" />
          </mxGeometry>
        </mxCell>
        <mxCell id="-bWIcoS8LJO7vBeeIRkM-4" value="" style="rounded=0;whiteSpace=wrap;html=1;fillColor=#dae8fc;strokeColor=#6c8ebf;" parent="zswCxuWQj6QQBfK_JD7G-1" vertex="1">
          <mxGeometry x="200" y="40" width="20" height="200" as="geometry" />
        </mxCell>
        <mxCell id="-bWIcoS8LJO7vBeeIRkM-9" style="edgeStyle=orthogonalEdgeStyle;rounded=0;orthogonalLoop=1;jettySize=auto;html=1;exitX=1;exitY=0.5;exitDx=0;exitDy=0;entryX=0;entryY=0.5;entryDx=0;entryDy=0;" parent="zswCxuWQj6QQBfK_JD7G-1" source="-bWIcoS8LJO7vBeeIRkM-6" target="-bWIcoS8LJO7vBeeIRkM-7" edge="1">
          <mxGeometry relative="1" as="geometry" />
        </mxCell>
        <mxCell id="-bWIcoS8LJO7vBeeIRkM-6" value="" style="rounded=0;whiteSpace=wrap;html=1;fillColor=#fff2cc;strokeColor=#d6b656;" parent="zswCxuWQj6QQBfK_JD7G-1" vertex="1">
          <mxGeometry x="243.75" y="80" width="20" height="120" as="geometry" />
        </mxCell>
        <mxCell id="-bWIcoS8LJO7vBeeIRkM-11" style="edgeStyle=orthogonalEdgeStyle;rounded=0;orthogonalLoop=1;jettySize=auto;html=1;entryX=0;entryY=0.5;entryDx=0;entryDy=0;" parent="zswCxuWQj6QQBfK_JD7G-1" source="-bWIcoS8LJO7vBeeIRkM-7" target="-bWIcoS8LJO7vBeeIRkM-10" edge="1">
          <mxGeometry relative="1" as="geometry" />
        </mxCell>
        <mxCell id="-bWIcoS8LJO7vBeeIRkM-7" value="" style="rounded=0;whiteSpace=wrap;html=1;fillColor=#66B2FF;strokeColor=#6c8ebf;" parent="zswCxuWQj6QQBfK_JD7G-1" vertex="1">
          <mxGeometry x="290" y="80" width="20" height="120" as="geometry" />
        </mxCell>
        <mxCell id="-bWIcoS8LJO7vBeeIRkM-16" style="edgeStyle=orthogonalEdgeStyle;rounded=0;orthogonalLoop=1;jettySize=auto;html=1;exitX=1;exitY=0.5;exitDx=0;exitDy=0;entryX=0;entryY=0.5;entryDx=0;entryDy=0;" parent="zswCxuWQj6QQBfK_JD7G-1" source="-bWIcoS8LJO7vBeeIRkM-10" target="-bWIcoS8LJO7vBeeIRkM-15" edge="1">
          <mxGeometry relative="1" as="geometry" />
        </mxCell>
        <mxCell id="-bWIcoS8LJO7vBeeIRkM-10" value="" style="rounded=0;whiteSpace=wrap;html=1;fillColor=#fff2cc;strokeColor=#d6b656;" parent="zswCxuWQj6QQBfK_JD7G-1" vertex="1">
          <mxGeometry x="338" y="110" width="20" height="60" as="geometry" />
        </mxCell>
        <mxCell id="-bWIcoS8LJO7vBeeIRkM-15" value="Description&lt;br&gt;feature" style="rounded=0;whiteSpace=wrap;html=1;fillColor=#e1d5e7;strokeColor=#9673a6;" parent="zswCxuWQj6QQBfK_JD7G-1" vertex="1">
          <mxGeometry x="378" y="120" width="70" height="40" as="geometry" />
        </mxCell>
        <mxCell id="-bWIcoS8LJO7vBeeIRkM-18" value="" style="rounded=0;whiteSpace=wrap;html=1;fillColor=#fff2cc;strokeColor=#d6b656;" parent="zswCxuWQj6QQBfK_JD7G-1" vertex="1">
          <mxGeometry x="176" y="260" width="30" height="20" as="geometry" />
        </mxCell>
        <mxCell id="-bWIcoS8LJO7vBeeIRkM-19" value="" style="rounded=0;whiteSpace=wrap;html=1;fillColor=#dae8fc;strokeColor=#6c8ebf;" parent="zswCxuWQj6QQBfK_JD7G-1" vertex="1">
          <mxGeometry x="42" y="260" width="30" height="20" as="geometry" />
        </mxCell>
        <mxCell id="-bWIcoS8LJO7vBeeIRkM-21" value="" style="rounded=0;whiteSpace=wrap;html=1;fillColor=#66B2FF;strokeColor=#6c8ebf;" parent="zswCxuWQj6QQBfK_JD7G-1" vertex="1">
          <mxGeometry x="307" y="260" width="30" height="20" as="geometry" />
        </mxCell>
        <mxCell id="-bWIcoS8LJO7vBeeIRkM-22" value="Max pooling layer" style="text;html=1;strokeColor=none;fillColor=none;align=center;verticalAlign=middle;whiteSpace=wrap;rounded=0;" parent="zswCxuWQj6QQBfK_JD7G-1" vertex="1">
          <mxGeometry x="73" y="260" width="100" height="20" as="geometry" />
        </mxCell>
        <mxCell id="-bWIcoS8LJO7vBeeIRkM-25" value="Convolution layer" style="text;html=1;strokeColor=none;fillColor=none;align=center;verticalAlign=middle;whiteSpace=wrap;rounded=0;" parent="zswCxuWQj6QQBfK_JD7G-1" vertex="1">
          <mxGeometry x="205" y="260" width="100" height="20" as="geometry" />
        </mxCell>
        <mxCell id="-bWIcoS8LJO7vBeeIRkM-26" value="Average pooling layer" style="text;html=1;strokeColor=none;fillColor=none;align=center;verticalAlign=middle;whiteSpace=wrap;rounded=0;" parent="zswCxuWQj6QQBfK_JD7G-1" vertex="1">
          <mxGeometry x="335" y="260" width="130" height="20" as="geometry" />
        </mxCell>
        <mxCell id="-bWIcoS8LJO7vBeeIRkM-33" value="ks1×8" style="text;html=1;strokeColor=none;fillColor=none;align=center;verticalAlign=middle;whiteSpace=wrap;rounded=0;" parent="zswCxuWQj6QQBfK_JD7G-1" vertex="1">
          <mxGeometry x="146.25" width="37.5" height="20" as="geometry" />
        </mxCell>
        <mxCell id="-bWIcoS8LJO7vBeeIRkM-36" value="" style="rounded=0;whiteSpace=wrap;html=1;dashed=1;" parent="zswCxuWQj6QQBfK_JD7G-1" vertex="1">
          <mxGeometry x="10" y="570" width="455" height="40" as="geometry" />
        </mxCell>
        <mxCell id="-bWIcoS8LJO7vBeeIRkM-37" style="edgeStyle=orthogonalEdgeStyle;rounded=0;orthogonalLoop=1;jettySize=auto;html=1;exitX=1;exitY=0.5;exitDx=0;exitDy=0;entryX=0;entryY=0.5;entryDx=0;entryDy=0;" parent="zswCxuWQj6QQBfK_JD7G-1" source="-bWIcoS8LJO7vBeeIRkM-38" target="-bWIcoS8LJO7vBeeIRkM-40" edge="1">
          <mxGeometry relative="1" as="geometry" />
        </mxCell>
        <mxCell id="-bWIcoS8LJO7vBeeIRkM-38" value="Attribute&lt;br&gt;value" style="rounded=0;whiteSpace=wrap;html=1;fillColor=#f8cecc;strokeColor=#b85450;" parent="zswCxuWQj6QQBfK_JD7G-1" vertex="1">
          <mxGeometry x="70" y="440" width="70" height="40" as="geometry" />
        </mxCell>
        <mxCell id="-bWIcoS8LJO7vBeeIRkM-39" value="" style="edgeStyle=orthogonalEdgeStyle;rounded=0;orthogonalLoop=1;jettySize=auto;html=1;" parent="zswCxuWQj6QQBfK_JD7G-1" source="-bWIcoS8LJO7vBeeIRkM-40" target="-bWIcoS8LJO7vBeeIRkM-42" edge="1">
          <mxGeometry relative="1" as="geometry" />
        </mxCell>
        <mxCell id="-bWIcoS8LJO7vBeeIRkM-40" value="" style="rounded=0;whiteSpace=wrap;html=1;fillColor=#fff2cc;strokeColor=#d6b656;" parent="zswCxuWQj6QQBfK_JD7G-1" vertex="1">
          <mxGeometry x="160" y="360" width="20" height="200" as="geometry" />
        </mxCell>
        <mxCell id="-bWIcoS8LJO7vBeeIRkM-41" style="edgeStyle=orthogonalEdgeStyle;rounded=0;orthogonalLoop=1;jettySize=auto;html=1;exitX=1;exitY=0.5;exitDx=0;exitDy=0;entryX=0;entryY=0.5;entryDx=0;entryDy=0;" parent="zswCxuWQj6QQBfK_JD7G-1" source="-bWIcoS8LJO7vBeeIRkM-42" target="-bWIcoS8LJO7vBeeIRkM-44" edge="1">
          <mxGeometry relative="1" as="geometry" />
        </mxCell>
        <mxCell id="-bWIcoS8LJO7vBeeIRkM-42" value="" style="rounded=0;whiteSpace=wrap;html=1;fillColor=#dae8fc;strokeColor=#6c8ebf;" parent="zswCxuWQj6QQBfK_JD7G-1" vertex="1">
          <mxGeometry x="209.99" y="360" width="20" height="200" as="geometry" />
        </mxCell>
        <mxCell id="-bWIcoS8LJO7vBeeIRkM-43" style="edgeStyle=orthogonalEdgeStyle;rounded=0;orthogonalLoop=1;jettySize=auto;html=1;exitX=1;exitY=0.5;exitDx=0;exitDy=0;entryX=0;entryY=0.5;entryDx=0;entryDy=0;" parent="zswCxuWQj6QQBfK_JD7G-1" source="-bWIcoS8LJO7vBeeIRkM-44" target="-bWIcoS8LJO7vBeeIRkM-46" edge="1">
          <mxGeometry relative="1" as="geometry" />
        </mxCell>
        <mxCell id="-bWIcoS8LJO7vBeeIRkM-44" value="" style="rounded=0;whiteSpace=wrap;html=1;fillColor=#fff2cc;strokeColor=#d6b656;" parent="zswCxuWQj6QQBfK_JD7G-1" vertex="1">
          <mxGeometry x="252.5" y="400" width="20" height="120" as="geometry" />
        </mxCell>
        <mxCell id="-bWIcoS8LJO7vBeeIRkM-46" value="" style="rounded=0;whiteSpace=wrap;html=1;fillColor=#66B2FF;strokeColor=#6c8ebf;" parent="zswCxuWQj6QQBfK_JD7G-1" vertex="1">
          <mxGeometry x="293.75" y="400" width="20" height="120" as="geometry" />
        </mxCell>
        <mxCell id="-bWIcoS8LJO7vBeeIRkM-47" style="edgeStyle=orthogonalEdgeStyle;rounded=0;orthogonalLoop=1;jettySize=auto;html=1;exitX=1;exitY=0.5;exitDx=0;exitDy=0;entryX=0;entryY=0.5;entryDx=0;entryDy=0;" parent="zswCxuWQj6QQBfK_JD7G-1" target="-bWIcoS8LJO7vBeeIRkM-49" edge="1">
          <mxGeometry relative="1" as="geometry">
            <mxPoint x="313.75" y="459.9999999999999" as="sourcePoint" />
          </mxGeometry>
        </mxCell>
        <mxCell id="-bWIcoS8LJO7vBeeIRkM-49" value="Attribute&lt;br&gt;feature" style="rounded=0;whiteSpace=wrap;html=1;fillColor=#e1d5e7;strokeColor=#9673a6;" parent="zswCxuWQj6QQBfK_JD7G-1" vertex="1">
          <mxGeometry x="333.75" y="440" width="70" height="40" as="geometry" />
        </mxCell>
        <mxCell id="-bWIcoS8LJO7vBeeIRkM-50" value="" style="rounded=0;whiteSpace=wrap;html=1;fillColor=#fff2cc;strokeColor=#d6b656;" parent="zswCxuWQj6QQBfK_JD7G-1" vertex="1">
          <mxGeometry x="156" y="580" width="30" height="20" as="geometry" />
        </mxCell>
        <mxCell id="-bWIcoS8LJO7vBeeIRkM-51" value="" style="rounded=0;whiteSpace=wrap;html=1;fillColor=#dae8fc;strokeColor=#6c8ebf;" parent="zswCxuWQj6QQBfK_JD7G-1" vertex="1">
          <mxGeometry x="22" y="580" width="30" height="20" as="geometry" />
        </mxCell>
        <mxCell id="-bWIcoS8LJO7vBeeIRkM-52" value="" style="rounded=0;whiteSpace=wrap;html=1;fillColor=#66B2FF;strokeColor=#6c8ebf;" parent="zswCxuWQj6QQBfK_JD7G-1" vertex="1">
          <mxGeometry x="296.99" y="580" width="30" height="20" as="geometry" />
        </mxCell>
        <mxCell id="-bWIcoS8LJO7vBeeIRkM-53" value="Max pooling layer" style="text;html=1;strokeColor=none;fillColor=none;align=center;verticalAlign=middle;whiteSpace=wrap;rounded=0;" parent="zswCxuWQj6QQBfK_JD7G-1" vertex="1">
          <mxGeometry x="53" y="580" width="100" height="20" as="geometry" />
        </mxCell>
        <mxCell id="-bWIcoS8LJO7vBeeIRkM-54" value="Convolution layer" style="text;html=1;strokeColor=none;fillColor=none;align=center;verticalAlign=middle;whiteSpace=wrap;rounded=0;" parent="zswCxuWQj6QQBfK_JD7G-1" vertex="1">
          <mxGeometry x="194.99" y="580" width="100" height="20" as="geometry" />
        </mxCell>
        <mxCell id="-bWIcoS8LJO7vBeeIRkM-55" value="Average pooling layer" style="text;html=1;strokeColor=none;fillColor=none;align=center;verticalAlign=middle;whiteSpace=wrap;rounded=0;" parent="zswCxuWQj6QQBfK_JD7G-1" vertex="1">
          <mxGeometry x="326.99" y="580" width="130" height="20" as="geometry" />
        </mxCell>
        <mxCell id="-bWIcoS8LJO7vBeeIRkM-60" value="c&amp;nbsp; 100" style="text;html=1;strokeColor=none;fillColor=none;align=center;verticalAlign=middle;whiteSpace=wrap;rounded=0;" parent="zswCxuWQj6QQBfK_JD7G-1" vertex="1">
          <mxGeometry x="146.25" y="20" width="37.5" height="20" as="geometry" />
        </mxCell>
        <mxCell id="-bWIcoS8LJO7vBeeIRkM-61" value="ks1×8" style="text;html=1;strokeColor=none;fillColor=none;align=center;verticalAlign=middle;whiteSpace=wrap;rounded=0;" parent="zswCxuWQj6QQBfK_JD7G-1" vertex="1">
          <mxGeometry x="235" y="40" width="37.5" height="20" as="geometry" />
        </mxCell>
        <mxCell id="-bWIcoS8LJO7vBeeIRkM-62" value="c&amp;nbsp; 100" style="text;html=1;strokeColor=none;fillColor=none;align=center;verticalAlign=middle;whiteSpace=wrap;rounded=0;" parent="zswCxuWQj6QQBfK_JD7G-1" vertex="1">
          <mxGeometry x="235" y="60" width="37.5" height="20" as="geometry" />
        </mxCell>
        <mxCell id="-bWIcoS8LJO7vBeeIRkM-63" value="ks1×3" style="text;html=1;strokeColor=none;fillColor=none;align=center;verticalAlign=middle;whiteSpace=wrap;rounded=0;" parent="zswCxuWQj6QQBfK_JD7G-1" vertex="1">
          <mxGeometry x="330" y="70" width="37.5" height="20" as="geometry" />
        </mxCell>
        <mxCell id="-bWIcoS8LJO7vBeeIRkM-64" value="c&amp;nbsp; 100" style="text;html=1;strokeColor=none;fillColor=none;align=center;verticalAlign=middle;whiteSpace=wrap;rounded=0;" parent="zswCxuWQj6QQBfK_JD7G-1" vertex="1">
          <mxGeometry x="330" y="90" width="37.5" height="20" as="geometry" />
        </mxCell>
        <mxCell id="-bWIcoS8LJO7vBeeIRkM-65" value="ks1×2" style="text;html=1;strokeColor=none;fillColor=none;align=center;verticalAlign=middle;whiteSpace=wrap;rounded=0;" parent="zswCxuWQj6QQBfK_JD7G-1" vertex="1">
          <mxGeometry x="151.25" y="320" width="37.5" height="20" as="geometry" />
        </mxCell>
        <mxCell id="-bWIcoS8LJO7vBeeIRkM-66" value="c&amp;nbsp; 100" style="text;html=1;strokeColor=none;fillColor=none;align=center;verticalAlign=middle;whiteSpace=wrap;rounded=0;" parent="zswCxuWQj6QQBfK_JD7G-1" vertex="1">
          <mxGeometry x="151.25" y="340" width="37.5" height="20" as="geometry" />
        </mxCell>
        <mxCell id="-bWIcoS8LJO7vBeeIRkM-67" value="ks1×1" style="text;html=1;strokeColor=none;fillColor=none;align=center;verticalAlign=middle;whiteSpace=wrap;rounded=0;" parent="zswCxuWQj6QQBfK_JD7G-1" vertex="1">
          <mxGeometry x="243.75" y="360" width="37.5" height="20" as="geometry" />
        </mxCell>
        <mxCell id="-bWIcoS8LJO7vBeeIRkM-68" value="c&amp;nbsp; 100" style="text;html=1;strokeColor=none;fillColor=none;align=center;verticalAlign=middle;whiteSpace=wrap;rounded=0;" parent="zswCxuWQj6QQBfK_JD7G-1" vertex="1">
          <mxGeometry x="243.75" y="380" width="37.5" height="20" as="geometry" />
        </mxCell>
        <mxCell id="-bWIcoS8LJO7vBeeIRkM-69" value="写在图像的描述上：caption: ks and c denotes the kernel size and output channel of the corresponding convolution layer. ps and s denotes the pool size and pool stride of the corresponding pooling alyer." style="text;html=1;strokeColor=none;fillColor=none;align=center;verticalAlign=middle;whiteSpace=wrap;rounded=0;fontSize=19;" parent="zswCxuWQj6QQBfK_JD7G-1" vertex="1">
          <mxGeometry x="490" y="220" width="320" height="270" as="geometry" />
        </mxCell>
        <mxCell id="-bWIcoS8LJO7vBeeIRkM-71" value="ps 1×4" style="text;html=1;strokeColor=none;fillColor=none;align=center;verticalAlign=middle;whiteSpace=wrap;rounded=0;" parent="zswCxuWQj6QQBfK_JD7G-1" vertex="1">
          <mxGeometry x="190.01" width="39.99" height="20" as="geometry" />
        </mxCell>
        <mxCell id="-bWIcoS8LJO7vBeeIRkM-72" value="s 4" style="text;html=1;strokeColor=none;fillColor=none;align=center;verticalAlign=middle;whiteSpace=wrap;rounded=0;" parent="zswCxuWQj6QQBfK_JD7G-1" vertex="1">
          <mxGeometry x="191.25" y="20" width="37.5" height="20" as="geometry" />
        </mxCell>
        <mxCell id="-bWIcoS8LJO7vBeeIRkM-73" value="ps 1×4" style="text;html=1;strokeColor=none;fillColor=none;align=center;verticalAlign=middle;whiteSpace=wrap;rounded=0;" parent="zswCxuWQj6QQBfK_JD7G-1" vertex="1">
          <mxGeometry x="280" y="40" width="39.99" height="20" as="geometry" />
        </mxCell>
        <mxCell id="-bWIcoS8LJO7vBeeIRkM-74" value="s 4" style="text;html=1;strokeColor=none;fillColor=none;align=center;verticalAlign=middle;whiteSpace=wrap;rounded=0;" parent="zswCxuWQj6QQBfK_JD7G-1" vertex="1">
          <mxGeometry x="281.24" y="60" width="37.5" height="20" as="geometry" />
        </mxCell>
        <mxCell id="-bWIcoS8LJO7vBeeIRkM-75" value="ps 1×4" style="text;html=1;strokeColor=none;fillColor=none;align=center;verticalAlign=middle;whiteSpace=wrap;rounded=0;" parent="zswCxuWQj6QQBfK_JD7G-1" vertex="1">
          <mxGeometry x="200" y="320" width="39.99" height="20" as="geometry" />
        </mxCell>
        <mxCell id="-bWIcoS8LJO7vBeeIRkM-76" value="s 4" style="text;html=1;strokeColor=none;fillColor=none;align=center;verticalAlign=middle;whiteSpace=wrap;rounded=0;" parent="zswCxuWQj6QQBfK_JD7G-1" vertex="1">
          <mxGeometry x="201.24" y="340" width="37.5" height="20" as="geometry" />
        </mxCell>
        <mxCell id="-bWIcoS8LJO7vBeeIRkM-79" value="ps 1×4" style="text;html=1;strokeColor=none;fillColor=none;align=center;verticalAlign=middle;whiteSpace=wrap;rounded=0;" parent="zswCxuWQj6QQBfK_JD7G-1" vertex="1">
          <mxGeometry x="281.24" y="360" width="39.99" height="20" as="geometry" />
        </mxCell>
        <mxCell id="-bWIcoS8LJO7vBeeIRkM-80" value="s 4" style="text;html=1;strokeColor=none;fillColor=none;align=center;verticalAlign=middle;whiteSpace=wrap;rounded=0;" parent="zswCxuWQj6QQBfK_JD7G-1" vertex="1">
          <mxGeometry x="282.48" y="380" width="37.5" height="20" as="geometry" />
        </mxCell>
      </root>
    </mxGraphModel>
  </diagram>
  <diagram id="NJ6vd7sll7RmcnslNVOy" name="第 2 页">
    <mxGraphModel dx="1102" dy="582" grid="1" gridSize="10" guides="1" tooltips="1" connect="1" arrows="1" fold="1" page="1" pageScale="1" pageWidth="827" pageHeight="1169" math="0" shadow="0">
      <root>
        <mxCell id="WvKr8OuWu00IRbeVMBMV-0" />
        <mxCell id="WvKr8OuWu00IRbeVMBMV-1" parent="WvKr8OuWu00IRbeVMBMV-0" />
        <mxCell id="fML5AShdrzJ3hRmlHjl2-22" value="" style="edgeStyle=orthogonalEdgeStyle;rounded=0;orthogonalLoop=1;jettySize=auto;html=1;fontSize=20;" parent="WvKr8OuWu00IRbeVMBMV-1" source="fML5AShdrzJ3hRmlHjl2-7" target="fML5AShdrzJ3hRmlHjl2-21" edge="1">
          <mxGeometry relative="1" as="geometry" />
        </mxCell>
        <mxCell id="fML5AShdrzJ3hRmlHjl2-7" value="" style="rounded=0;whiteSpace=wrap;html=1;" parent="WvKr8OuWu00IRbeVMBMV-1" vertex="1">
          <mxGeometry x="185" y="800" width="580" height="150" as="geometry" />
        </mxCell>
        <mxCell id="fML5AShdrzJ3hRmlHjl2-21" value="" style="rounded=0;whiteSpace=wrap;html=1;" parent="WvKr8OuWu00IRbeVMBMV-1" vertex="1">
          <mxGeometry x="185" y="980" width="580" height="230" as="geometry" />
        </mxCell>
        <mxCell id="GydJUKU-SyC7zDcrzHgr-35" style="edgeStyle=orthogonalEdgeStyle;rounded=0;orthogonalLoop=1;jettySize=auto;html=1;exitX=0.5;exitY=1;exitDx=0;exitDy=0;entryX=0.5;entryY=0;entryDx=0;entryDy=0;" parent="WvKr8OuWu00IRbeVMBMV-1" source="GydJUKU-SyC7zDcrzHgr-31" target="GydJUKU-SyC7zDcrzHgr-36" edge="1">
          <mxGeometry relative="1" as="geometry">
            <mxPoint x="110" y="160" as="targetPoint" />
          </mxGeometry>
        </mxCell>
        <mxCell id="GydJUKU-SyC7zDcrzHgr-31" value="1×8 conv, 100" style="rounded=0;whiteSpace=wrap;html=1;fillColor=#fff2cc;strokeColor=#d6b656;" parent="WvKr8OuWu00IRbeVMBMV-1" vertex="1">
          <mxGeometry x="50" y="100" width="120" height="30" as="geometry" />
        </mxCell>
        <mxCell id="GydJUKU-SyC7zDcrzHgr-45" style="edgeStyle=orthogonalEdgeStyle;rounded=0;orthogonalLoop=1;jettySize=auto;html=1;exitX=0.5;exitY=1;exitDx=0;exitDy=0;entryX=0.5;entryY=0;entryDx=0;entryDy=0;" parent="WvKr8OuWu00IRbeVMBMV-1" source="GydJUKU-SyC7zDcrzHgr-32" target="GydJUKU-SyC7zDcrzHgr-44" edge="1">
          <mxGeometry relative="1" as="geometry" />
        </mxCell>
        <mxCell id="GydJUKU-SyC7zDcrzHgr-32" value="1×8 conv, 100" style="rounded=0;whiteSpace=wrap;html=1;fillColor=#fff2cc;strokeColor=#d6b656;" parent="WvKr8OuWu00IRbeVMBMV-1" vertex="1">
          <mxGeometry x="50" y="180" width="120" height="30" as="geometry" />
        </mxCell>
        <mxCell id="GydJUKU-SyC7zDcrzHgr-51" style="edgeStyle=orthogonalEdgeStyle;rounded=0;orthogonalLoop=1;jettySize=auto;html=1;exitX=0.5;exitY=1;exitDx=0;exitDy=0;entryX=0.5;entryY=0;entryDx=0;entryDy=0;" parent="WvKr8OuWu00IRbeVMBMV-1" source="GydJUKU-SyC7zDcrzHgr-40" target="GydJUKU-SyC7zDcrzHgr-50" edge="1">
          <mxGeometry relative="1" as="geometry" />
        </mxCell>
        <mxCell id="GydJUKU-SyC7zDcrzHgr-40" value="1×3 conv, 100" style="rounded=0;whiteSpace=wrap;html=1;fillColor=#fff2cc;strokeColor=#d6b656;" parent="WvKr8OuWu00IRbeVMBMV-1" vertex="1">
          <mxGeometry x="50" y="266" width="120" height="30" as="geometry" />
        </mxCell>
        <mxCell id="GydJUKU-SyC7zDcrzHgr-39" style="edgeStyle=orthogonalEdgeStyle;rounded=0;orthogonalLoop=1;jettySize=auto;html=1;exitX=0.5;exitY=1;exitDx=0;exitDy=0;entryX=0.5;entryY=0;entryDx=0;entryDy=0;" parent="WvKr8OuWu00IRbeVMBMV-1" source="GydJUKU-SyC7zDcrzHgr-36" target="GydJUKU-SyC7zDcrzHgr-32" edge="1">
          <mxGeometry relative="1" as="geometry" />
        </mxCell>
        <mxCell id="GydJUKU-SyC7zDcrzHgr-36" value="max pooling, &lt;br&gt;size 1×4, strde 4" style="text;html=1;strokeColor=none;fillColor=none;align=center;verticalAlign=middle;whiteSpace=wrap;rounded=0;" parent="WvKr8OuWu00IRbeVMBMV-1" vertex="1">
          <mxGeometry x="40" y="140" width="140" height="34" as="geometry" />
        </mxCell>
        <mxCell id="GydJUKU-SyC7zDcrzHgr-46" style="edgeStyle=orthogonalEdgeStyle;rounded=0;orthogonalLoop=1;jettySize=auto;html=1;exitX=0.5;exitY=1;exitDx=0;exitDy=0;entryX=0.5;entryY=0;entryDx=0;entryDy=0;" parent="WvKr8OuWu00IRbeVMBMV-1" source="GydJUKU-SyC7zDcrzHgr-44" target="GydJUKU-SyC7zDcrzHgr-40" edge="1">
          <mxGeometry relative="1" as="geometry" />
        </mxCell>
        <mxCell id="GydJUKU-SyC7zDcrzHgr-44" value="average pooling, &lt;br&gt;size 1×8, strde 4" style="text;html=1;strokeColor=none;fillColor=none;align=center;verticalAlign=middle;whiteSpace=wrap;rounded=0;" parent="WvKr8OuWu00IRbeVMBMV-1" vertex="1">
          <mxGeometry x="40" y="223" width="140" height="30" as="geometry" />
        </mxCell>
        <mxCell id="GydJUKU-SyC7zDcrzHgr-48" style="edgeStyle=orthogonalEdgeStyle;rounded=0;orthogonalLoop=1;jettySize=auto;html=1;exitX=0.5;exitY=1;exitDx=0;exitDy=0;entryX=0.5;entryY=0;entryDx=0;entryDy=0;" parent="WvKr8OuWu00IRbeVMBMV-1" source="GydJUKU-SyC7zDcrzHgr-47" target="GydJUKU-SyC7zDcrzHgr-31" edge="1">
          <mxGeometry relative="1" as="geometry" />
        </mxCell>
        <mxCell id="GydJUKU-SyC7zDcrzHgr-47" value="Description" style="rounded=0;whiteSpace=wrap;html=1;fillColor=#f8cecc;strokeColor=#b85450;" parent="WvKr8OuWu00IRbeVMBMV-1" vertex="1">
          <mxGeometry x="75" y="40" width="70" height="40" as="geometry" />
        </mxCell>
        <mxCell id="GydJUKU-SyC7zDcrzHgr-49" style="edgeStyle=orthogonalEdgeStyle;rounded=0;orthogonalLoop=1;jettySize=auto;html=1;exitX=0.5;exitY=1;exitDx=0;exitDy=0;" parent="WvKr8OuWu00IRbeVMBMV-1" source="GydJUKU-SyC7zDcrzHgr-40" target="GydJUKU-SyC7zDcrzHgr-40" edge="1">
          <mxGeometry relative="1" as="geometry" />
        </mxCell>
        <mxCell id="GydJUKU-SyC7zDcrzHgr-50" value="Description&lt;br&gt;feature" style="rounded=0;whiteSpace=wrap;html=1;fillColor=#e1d5e7;strokeColor=#9673a6;" parent="WvKr8OuWu00IRbeVMBMV-1" vertex="1">
          <mxGeometry x="75" y="310" width="70" height="40" as="geometry" />
        </mxCell>
        <mxCell id="GydJUKU-SyC7zDcrzHgr-52" style="edgeStyle=orthogonalEdgeStyle;rounded=0;orthogonalLoop=1;jettySize=auto;html=1;exitX=0.5;exitY=1;exitDx=0;exitDy=0;entryX=0.5;entryY=0;entryDx=0;entryDy=0;" parent="WvKr8OuWu00IRbeVMBMV-1" source="GydJUKU-SyC7zDcrzHgr-53" target="GydJUKU-SyC7zDcrzHgr-59" edge="1">
          <mxGeometry relative="1" as="geometry">
            <mxPoint x="270" y="160" as="targetPoint" />
          </mxGeometry>
        </mxCell>
        <mxCell id="GydJUKU-SyC7zDcrzHgr-53" value="1×2 conv, 100" style="rounded=0;whiteSpace=wrap;html=1;fillColor=#fff2cc;strokeColor=#d6b656;" parent="WvKr8OuWu00IRbeVMBMV-1" vertex="1">
          <mxGeometry x="210" y="100" width="120" height="30" as="geometry" />
        </mxCell>
        <mxCell id="GydJUKU-SyC7zDcrzHgr-54" style="edgeStyle=orthogonalEdgeStyle;rounded=0;orthogonalLoop=1;jettySize=auto;html=1;exitX=0.5;exitY=1;exitDx=0;exitDy=0;entryX=0.5;entryY=0;entryDx=0;entryDy=0;" parent="WvKr8OuWu00IRbeVMBMV-1" source="GydJUKU-SyC7zDcrzHgr-55" target="GydJUKU-SyC7zDcrzHgr-61" edge="1">
          <mxGeometry relative="1" as="geometry" />
        </mxCell>
        <mxCell id="GydJUKU-SyC7zDcrzHgr-55" value="1×1 conv, 100" style="rounded=0;whiteSpace=wrap;html=1;fillColor=#fff2cc;strokeColor=#d6b656;" parent="WvKr8OuWu00IRbeVMBMV-1" vertex="1">
          <mxGeometry x="210" y="180" width="120" height="30" as="geometry" />
        </mxCell>
        <mxCell id="GydJUKU-SyC7zDcrzHgr-58" style="edgeStyle=orthogonalEdgeStyle;rounded=0;orthogonalLoop=1;jettySize=auto;html=1;exitX=0.5;exitY=1;exitDx=0;exitDy=0;entryX=0.5;entryY=0;entryDx=0;entryDy=0;" parent="WvKr8OuWu00IRbeVMBMV-1" source="GydJUKU-SyC7zDcrzHgr-59" target="GydJUKU-SyC7zDcrzHgr-55" edge="1">
          <mxGeometry relative="1" as="geometry" />
        </mxCell>
        <mxCell id="GydJUKU-SyC7zDcrzHgr-59" value="1×4 max pooling, &lt;br&gt;strde 4" style="text;html=1;strokeColor=#6c8ebf;fillColor=#dae8fc;align=center;verticalAlign=middle;whiteSpace=wrap;rounded=0;" parent="WvKr8OuWu00IRbeVMBMV-1" vertex="1">
          <mxGeometry x="200" y="140" width="140" height="34" as="geometry" />
        </mxCell>
        <mxCell id="GydJUKU-SyC7zDcrzHgr-60" style="edgeStyle=orthogonalEdgeStyle;rounded=0;orthogonalLoop=1;jettySize=auto;html=1;exitX=0.5;exitY=1;exitDx=0;exitDy=0;entryX=0.5;entryY=0;entryDx=0;entryDy=0;" parent="WvKr8OuWu00IRbeVMBMV-1" source="GydJUKU-SyC7zDcrzHgr-61" target="GydJUKU-SyC7zDcrzHgr-65" edge="1">
          <mxGeometry relative="1" as="geometry">
            <mxPoint x="270.0000000000001" y="266" as="targetPoint" />
          </mxGeometry>
        </mxCell>
        <mxCell id="GydJUKU-SyC7zDcrzHgr-61" value="1×8 average pooling, &lt;br&gt;&amp;nbsp;strde 4" style="text;html=1;strokeColor=#6c8ebf;fillColor=#dae8fc;align=center;verticalAlign=middle;whiteSpace=wrap;rounded=0;" parent="WvKr8OuWu00IRbeVMBMV-1" vertex="1">
          <mxGeometry x="200" y="223" width="140" height="30" as="geometry" />
        </mxCell>
        <mxCell id="GydJUKU-SyC7zDcrzHgr-62" style="edgeStyle=orthogonalEdgeStyle;rounded=0;orthogonalLoop=1;jettySize=auto;html=1;exitX=0.5;exitY=1;exitDx=0;exitDy=0;entryX=0.5;entryY=0;entryDx=0;entryDy=0;" parent="WvKr8OuWu00IRbeVMBMV-1" source="GydJUKU-SyC7zDcrzHgr-63" target="GydJUKU-SyC7zDcrzHgr-53" edge="1">
          <mxGeometry relative="1" as="geometry" />
        </mxCell>
        <mxCell id="GydJUKU-SyC7zDcrzHgr-63" value="Attribute&lt;br&gt;value" style="rounded=0;whiteSpace=wrap;html=1;fillColor=#f8cecc;strokeColor=#b85450;" parent="WvKr8OuWu00IRbeVMBMV-1" vertex="1">
          <mxGeometry x="235" y="40" width="70" height="40" as="geometry" />
        </mxCell>
        <mxCell id="GydJUKU-SyC7zDcrzHgr-64" style="edgeStyle=orthogonalEdgeStyle;rounded=0;orthogonalLoop=1;jettySize=auto;html=1;exitX=0.5;exitY=1;exitDx=0;exitDy=0;" parent="WvKr8OuWu00IRbeVMBMV-1" edge="1">
          <mxGeometry relative="1" as="geometry">
            <mxPoint x="270.0000000000001" y="296" as="sourcePoint" />
            <mxPoint x="270.0000000000001" y="296" as="targetPoint" />
          </mxGeometry>
        </mxCell>
        <mxCell id="GydJUKU-SyC7zDcrzHgr-65" value="Attribute&lt;br&gt;feature" style="rounded=0;whiteSpace=wrap;html=1;fillColor=#e1d5e7;strokeColor=#9673a6;" parent="WvKr8OuWu00IRbeVMBMV-1" vertex="1">
          <mxGeometry x="235" y="340" width="70" height="40" as="geometry" />
        </mxCell>
        <mxCell id="Bbtx0m7F_LNPK4UvHA8J-0" style="edgeStyle=orthogonalEdgeStyle;rounded=0;orthogonalLoop=1;jettySize=auto;html=1;exitX=0.5;exitY=1;exitDx=0;exitDy=0;entryX=0.5;entryY=0;entryDx=0;entryDy=0;" parent="WvKr8OuWu00IRbeVMBMV-1" source="Bbtx0m7F_LNPK4UvHA8J-1" target="Bbtx0m7F_LNPK4UvHA8J-7" edge="1">
          <mxGeometry relative="1" as="geometry">
            <mxPoint x="440" y="230" as="targetPoint" />
          </mxGeometry>
        </mxCell>
        <mxCell id="Bbtx0m7F_LNPK4UvHA8J-1" value="1×8 conv, 100" style="rounded=0;whiteSpace=wrap;html=1;fillColor=#fff2cc;strokeColor=#d6b656;" parent="WvKr8OuWu00IRbeVMBMV-1" vertex="1">
          <mxGeometry x="380" y="170" width="120" height="30" as="geometry" />
        </mxCell>
        <mxCell id="Bbtx0m7F_LNPK4UvHA8J-2" style="edgeStyle=orthogonalEdgeStyle;rounded=0;orthogonalLoop=1;jettySize=auto;html=1;exitX=0.5;exitY=1;exitDx=0;exitDy=0;entryX=0.5;entryY=0;entryDx=0;entryDy=0;" parent="WvKr8OuWu00IRbeVMBMV-1" source="Bbtx0m7F_LNPK4UvHA8J-3" target="Bbtx0m7F_LNPK4UvHA8J-9" edge="1">
          <mxGeometry relative="1" as="geometry" />
        </mxCell>
        <mxCell id="Bbtx0m7F_LNPK4UvHA8J-3" value="1×8 conv, 100" style="rounded=0;whiteSpace=wrap;html=1;fillColor=#fff2cc;strokeColor=#d6b656;" parent="WvKr8OuWu00IRbeVMBMV-1" vertex="1">
          <mxGeometry x="380" y="250" width="120" height="30" as="geometry" />
        </mxCell>
        <mxCell id="Bbtx0m7F_LNPK4UvHA8J-4" style="edgeStyle=orthogonalEdgeStyle;rounded=0;orthogonalLoop=1;jettySize=auto;html=1;exitX=0.5;exitY=1;exitDx=0;exitDy=0;entryX=0.5;entryY=0;entryDx=0;entryDy=0;" parent="WvKr8OuWu00IRbeVMBMV-1" source="Bbtx0m7F_LNPK4UvHA8J-5" target="Bbtx0m7F_LNPK4UvHA8J-13" edge="1">
          <mxGeometry relative="1" as="geometry" />
        </mxCell>
        <mxCell id="Bbtx0m7F_LNPK4UvHA8J-5" value="1×3 conv, 100" style="rounded=0;whiteSpace=wrap;html=1;fillColor=#fff2cc;strokeColor=#d6b656;" parent="WvKr8OuWu00IRbeVMBMV-1" vertex="1">
          <mxGeometry x="380" y="336" width="120" height="30" as="geometry" />
        </mxCell>
        <mxCell id="Bbtx0m7F_LNPK4UvHA8J-6" style="edgeStyle=orthogonalEdgeStyle;rounded=0;orthogonalLoop=1;jettySize=auto;html=1;exitX=0.5;exitY=1;exitDx=0;exitDy=0;entryX=0.5;entryY=0;entryDx=0;entryDy=0;" parent="WvKr8OuWu00IRbeVMBMV-1" source="Bbtx0m7F_LNPK4UvHA8J-7" target="Bbtx0m7F_LNPK4UvHA8J-3" edge="1">
          <mxGeometry relative="1" as="geometry" />
        </mxCell>
        <mxCell id="Bbtx0m7F_LNPK4UvHA8J-7" value="max pooling, &lt;br&gt;size 1×4, strde 4" style="text;html=1;strokeColor=none;fillColor=none;align=center;verticalAlign=middle;whiteSpace=wrap;rounded=0;" parent="WvKr8OuWu00IRbeVMBMV-1" vertex="1">
          <mxGeometry x="370" y="210" width="140" height="34" as="geometry" />
        </mxCell>
        <mxCell id="Bbtx0m7F_LNPK4UvHA8J-8" style="edgeStyle=orthogonalEdgeStyle;rounded=0;orthogonalLoop=1;jettySize=auto;html=1;exitX=0.5;exitY=1;exitDx=0;exitDy=0;entryX=0.5;entryY=0;entryDx=0;entryDy=0;" parent="WvKr8OuWu00IRbeVMBMV-1" source="Bbtx0m7F_LNPK4UvHA8J-9" target="Bbtx0m7F_LNPK4UvHA8J-5" edge="1">
          <mxGeometry relative="1" as="geometry" />
        </mxCell>
        <mxCell id="Bbtx0m7F_LNPK4UvHA8J-9" value="average pooling, &lt;br&gt;size 1×8, strde 4" style="text;html=1;strokeColor=none;fillColor=none;align=center;verticalAlign=middle;whiteSpace=wrap;rounded=0;" parent="WvKr8OuWu00IRbeVMBMV-1" vertex="1">
          <mxGeometry x="370" y="293" width="140" height="30" as="geometry" />
        </mxCell>
        <mxCell id="Bbtx0m7F_LNPK4UvHA8J-10" style="edgeStyle=orthogonalEdgeStyle;rounded=0;orthogonalLoop=1;jettySize=auto;html=1;exitX=0.5;exitY=1;exitDx=0;exitDy=0;entryX=0.5;entryY=0;entryDx=0;entryDy=0;" parent="WvKr8OuWu00IRbeVMBMV-1" source="Bbtx0m7F_LNPK4UvHA8J-11" target="Bbtx0m7F_LNPK4UvHA8J-1" edge="1">
          <mxGeometry relative="1" as="geometry" />
        </mxCell>
        <mxCell id="Bbtx0m7F_LNPK4UvHA8J-11" value="Description" style="rounded=0;whiteSpace=wrap;html=1;fillColor=#f8cecc;strokeColor=#b85450;" parent="WvKr8OuWu00IRbeVMBMV-1" vertex="1">
          <mxGeometry x="405" y="110" width="70" height="40" as="geometry" />
        </mxCell>
        <mxCell id="Bbtx0m7F_LNPK4UvHA8J-12" style="edgeStyle=orthogonalEdgeStyle;rounded=0;orthogonalLoop=1;jettySize=auto;html=1;exitX=0.5;exitY=1;exitDx=0;exitDy=0;" parent="WvKr8OuWu00IRbeVMBMV-1" source="Bbtx0m7F_LNPK4UvHA8J-5" target="Bbtx0m7F_LNPK4UvHA8J-5" edge="1">
          <mxGeometry relative="1" as="geometry" />
        </mxCell>
        <mxCell id="Bbtx0m7F_LNPK4UvHA8J-13" value="Description&lt;br&gt;feature" style="rounded=0;whiteSpace=wrap;html=1;fillColor=#e1d5e7;strokeColor=#9673a6;" parent="WvKr8OuWu00IRbeVMBMV-1" vertex="1">
          <mxGeometry x="405" y="380" width="70" height="40" as="geometry" />
        </mxCell>
        <mxCell id="9rhOHNDIpvoFOZnhl8a4-0" value="1×1 conv, 100" style="rounded=0;whiteSpace=wrap;html=1;fillColor=#fff2cc;strokeColor=#d6b656;" parent="WvKr8OuWu00IRbeVMBMV-1" vertex="1">
          <mxGeometry x="210" y="280" width="120" height="30" as="geometry" />
        </mxCell>
        <mxCell id="fML5AShdrzJ3hRmlHjl2-0" value="实体描述" style="rounded=0;whiteSpace=wrap;html=1;" parent="WvKr8OuWu00IRbeVMBMV-1" vertex="1">
          <mxGeometry x="200" y="620" width="120" height="60" as="geometry" />
        </mxCell>
        <mxCell id="fML5AShdrzJ3hRmlHjl2-1" value="关系三元组" style="rounded=0;whiteSpace=wrap;html=1;" parent="WvKr8OuWu00IRbeVMBMV-1" vertex="1">
          <mxGeometry x="405" y="620" width="120" height="60" as="geometry" />
        </mxCell>
        <mxCell id="fML5AShdrzJ3hRmlHjl2-2" value="属性三元组" style="rounded=0;whiteSpace=wrap;html=1;" parent="WvKr8OuWu00IRbeVMBMV-1" vertex="1">
          <mxGeometry x="600" y="620" width="120" height="60" as="geometry" />
        </mxCell>
        <mxCell id="fML5AShdrzJ3hRmlHjl2-3" value="" style="endArrow=classic;html=1;entryX=0.5;entryY=0;entryDx=0;entryDy=0;" parent="WvKr8OuWu00IRbeVMBMV-1" target="fML5AShdrzJ3hRmlHjl2-0" edge="1">
          <mxGeometry width="50" height="50" relative="1" as="geometry">
            <mxPoint x="400" y="560" as="sourcePoint" />
            <mxPoint x="450" y="510" as="targetPoint" />
          </mxGeometry>
        </mxCell>
        <mxCell id="fML5AShdrzJ3hRmlHjl2-4" value="" style="endArrow=classic;html=1;" parent="WvKr8OuWu00IRbeVMBMV-1" target="fML5AShdrzJ3hRmlHjl2-1" edge="1">
          <mxGeometry width="50" height="50" relative="1" as="geometry">
            <mxPoint x="400" y="560" as="sourcePoint" />
            <mxPoint x="270" y="630" as="targetPoint" />
          </mxGeometry>
        </mxCell>
        <mxCell id="fML5AShdrzJ3hRmlHjl2-5" value="" style="endArrow=classic;html=1;" parent="WvKr8OuWu00IRbeVMBMV-1" target="fML5AShdrzJ3hRmlHjl2-2" edge="1">
          <mxGeometry width="50" height="50" relative="1" as="geometry">
            <mxPoint x="460" y="550" as="sourcePoint" />
            <mxPoint x="280" y="640" as="targetPoint" />
          </mxGeometry>
        </mxCell>
        <mxCell id="fML5AShdrzJ3hRmlHjl2-6" value="" style="endArrow=classic;html=1;exitX=0.5;exitY=1;exitDx=0;exitDy=0;entryX=0.5;entryY=0;entryDx=0;entryDy=0;" parent="WvKr8OuWu00IRbeVMBMV-1" source="fML5AShdrzJ3hRmlHjl2-1" target="fML5AShdrzJ3hRmlHjl2-15" edge="1">
          <mxGeometry width="50" height="50" relative="1" as="geometry">
            <mxPoint x="440" y="700" as="sourcePoint" />
            <mxPoint x="335" y="770" as="targetPoint" />
            <Array as="points">
              <mxPoint x="335" y="700" />
            </Array>
          </mxGeometry>
        </mxCell>
        <mxCell id="fML5AShdrzJ3hRmlHjl2-8" value="CNDB&amp;nbsp;&lt;br style=&quot;font-size: 20px;&quot;&gt;h_se&amp;nbsp;" style="text;html=1;strokeColor=none;fillColor=none;align=center;verticalAlign=middle;whiteSpace=wrap;rounded=0;fontSize=20;" parent="WvKr8OuWu00IRbeVMBMV-1" vertex="1">
          <mxGeometry x="170" y="720" width="165" height="60" as="geometry" />
        </mxCell>
        <mxCell id="fML5AShdrzJ3hRmlHjl2-11" value="" style="endArrow=classic;html=1;entryX=0.5;entryY=0;entryDx=0;entryDy=0;" parent="WvKr8OuWu00IRbeVMBMV-1" target="fML5AShdrzJ3hRmlHjl2-20" edge="1">
          <mxGeometry width="50" height="50" relative="1" as="geometry">
            <mxPoint x="460" y="680" as="sourcePoint" />
            <mxPoint x="590" y="790" as="targetPoint" />
            <Array as="points">
              <mxPoint x="590" y="700" />
            </Array>
          </mxGeometry>
        </mxCell>
        <mxCell id="fML5AShdrzJ3hRmlHjl2-13" value="UGC&amp;nbsp;&lt;br style=&quot;font-size: 20px&quot;&gt;h_se&amp;nbsp;" style="text;html=1;strokeColor=none;fillColor=none;align=center;verticalAlign=middle;whiteSpace=wrap;rounded=0;fontSize=20;" parent="WvKr8OuWu00IRbeVMBMV-1" vertex="1">
          <mxGeometry x="577.5" y="720" width="165" height="60" as="geometry" />
        </mxCell>
        <mxCell id="fML5AShdrzJ3hRmlHjl2-14" value="cos(&amp;nbsp; &amp;nbsp; &amp;nbsp; &amp;nbsp; &amp;nbsp; &amp;nbsp; &amp;nbsp; &amp;nbsp; &amp;nbsp; &amp;nbsp; &amp;nbsp; &amp;nbsp; &amp;nbsp; &amp;nbsp; &amp;nbsp; &amp;nbsp; &amp;nbsp; &amp;nbsp; &amp;nbsp; &amp;nbsp; &amp;nbsp; &amp;nbsp; &amp;nbsp; &amp;nbsp; &amp;nbsp; &amp;nbsp; &amp;nbsp; &amp;nbsp;)" style="text;html=1;strokeColor=none;fillColor=none;align=center;verticalAlign=middle;whiteSpace=wrap;rounded=0;fontSize=20;" parent="WvKr8OuWu00IRbeVMBMV-1" vertex="1">
          <mxGeometry x="210" y="865" width="450" height="20" as="geometry" />
        </mxCell>
        <mxCell id="fML5AShdrzJ3hRmlHjl2-15" value="CNDB&lt;br&gt;hse" style="rounded=0;whiteSpace=wrap;html=1;fontSize=20;" parent="WvKr8OuWu00IRbeVMBMV-1" vertex="1">
          <mxGeometry x="330" y="810" width="80" height="140" as="geometry" />
        </mxCell>
        <mxCell id="fML5AShdrzJ3hRmlHjl2-18" value="实体对齐" style="text;html=1;strokeColor=none;fillColor=none;align=center;verticalAlign=middle;whiteSpace=wrap;rounded=0;fontSize=20;" parent="WvKr8OuWu00IRbeVMBMV-1" vertex="1">
          <mxGeometry x="185" y="865" width="40" height="20" as="geometry" />
        </mxCell>
        <mxCell id="fML5AShdrzJ3hRmlHjl2-19" style="edgeStyle=orthogonalEdgeStyle;rounded=0;orthogonalLoop=1;jettySize=auto;html=1;exitX=0.5;exitY=0;exitDx=0;exitDy=0;entryX=0.25;entryY=1;entryDx=0;entryDy=0;fontSize=20;" parent="WvKr8OuWu00IRbeVMBMV-1" source="fML5AShdrzJ3hRmlHjl2-18" target="fML5AShdrzJ3hRmlHjl2-18" edge="1">
          <mxGeometry relative="1" as="geometry" />
        </mxCell>
        <mxCell id="fML5AShdrzJ3hRmlHjl2-20" value="UGC&lt;br&gt;hse" style="rounded=0;whiteSpace=wrap;html=1;fontSize=20;" parent="WvKr8OuWu00IRbeVMBMV-1" vertex="1">
          <mxGeometry x="500" y="810" width="75" height="140" as="geometry" />
        </mxCell>
        <mxCell id="fML5AShdrzJ3hRmlHjl2-24" value="" style="ellipse;whiteSpace=wrap;html=1;aspect=fixed;fontSize=20;" parent="WvKr8OuWu00IRbeVMBMV-1" vertex="1">
          <mxGeometry x="255" y="1020" width="30" height="30" as="geometry" />
        </mxCell>
        <mxCell id="fML5AShdrzJ3hRmlHjl2-29" style="rounded=0;orthogonalLoop=1;jettySize=auto;html=1;exitX=1;exitY=0;exitDx=0;exitDy=0;fontSize=20;endArrow=none;endFill=0;" parent="WvKr8OuWu00IRbeVMBMV-1" source="fML5AShdrzJ3hRmlHjl2-25" target="fML5AShdrzJ3hRmlHjl2-26" edge="1">
          <mxGeometry relative="1" as="geometry" />
        </mxCell>
        <mxCell id="fML5AShdrzJ3hRmlHjl2-30" style="edgeStyle=none;rounded=0;orthogonalLoop=1;jettySize=auto;html=1;exitX=1;exitY=1;exitDx=0;exitDy=0;endArrow=none;endFill=0;fontSize=20;" parent="WvKr8OuWu00IRbeVMBMV-1" source="fML5AShdrzJ3hRmlHjl2-25" target="fML5AShdrzJ3hRmlHjl2-27" edge="1">
          <mxGeometry relative="1" as="geometry" />
        </mxCell>
        <mxCell id="fML5AShdrzJ3hRmlHjl2-31" style="edgeStyle=none;rounded=0;orthogonalLoop=1;jettySize=auto;html=1;exitX=0;exitY=0;exitDx=0;exitDy=0;endArrow=none;endFill=0;fontSize=20;" parent="WvKr8OuWu00IRbeVMBMV-1" source="fML5AShdrzJ3hRmlHjl2-25" target="fML5AShdrzJ3hRmlHjl2-24" edge="1">
          <mxGeometry relative="1" as="geometry" />
        </mxCell>
        <mxCell id="fML5AShdrzJ3hRmlHjl2-32" style="edgeStyle=none;rounded=0;orthogonalLoop=1;jettySize=auto;html=1;exitX=0;exitY=1;exitDx=0;exitDy=0;endArrow=none;endFill=0;fontSize=20;" parent="WvKr8OuWu00IRbeVMBMV-1" source="fML5AShdrzJ3hRmlHjl2-25" target="fML5AShdrzJ3hRmlHjl2-28" edge="1">
          <mxGeometry relative="1" as="geometry" />
        </mxCell>
        <mxCell id="fML5AShdrzJ3hRmlHjl2-25" value="" style="ellipse;whiteSpace=wrap;html=1;aspect=fixed;fontSize=20;" parent="WvKr8OuWu00IRbeVMBMV-1" vertex="1">
          <mxGeometry x="270" y="1060" width="30" height="30" as="geometry" />
        </mxCell>
        <mxCell id="fML5AShdrzJ3hRmlHjl2-26" value="" style="ellipse;whiteSpace=wrap;html=1;aspect=fixed;fontSize=20;" parent="WvKr8OuWu00IRbeVMBMV-1" vertex="1">
          <mxGeometry x="320" y="1040" width="30" height="30" as="geometry" />
        </mxCell>
        <mxCell id="fML5AShdrzJ3hRmlHjl2-27" value="" style="ellipse;whiteSpace=wrap;html=1;aspect=fixed;fontSize=20;" parent="WvKr8OuWu00IRbeVMBMV-1" vertex="1">
          <mxGeometry x="335" y="1100" width="30" height="30" as="geometry" />
        </mxCell>
        <mxCell id="fML5AShdrzJ3hRmlHjl2-28" value="" style="ellipse;whiteSpace=wrap;html=1;aspect=fixed;fontSize=20;" parent="WvKr8OuWu00IRbeVMBMV-1" vertex="1">
          <mxGeometry x="237.5" y="1100" width="30" height="30" as="geometry" />
        </mxCell>
        <mxCell id="fML5AShdrzJ3hRmlHjl2-33" value="" style="ellipse;whiteSpace=wrap;html=1;aspect=fixed;fontSize=20;" parent="WvKr8OuWu00IRbeVMBMV-1" vertex="1">
          <mxGeometry x="547.5" y="1040" width="30" height="30" as="geometry" />
        </mxCell>
        <mxCell id="fML5AShdrzJ3hRmlHjl2-34" style="rounded=0;orthogonalLoop=1;jettySize=auto;html=1;exitX=1;exitY=0;exitDx=0;exitDy=0;fontSize=20;endArrow=none;endFill=0;" parent="WvKr8OuWu00IRbeVMBMV-1" source="fML5AShdrzJ3hRmlHjl2-38" target="fML5AShdrzJ3hRmlHjl2-39" edge="1">
          <mxGeometry relative="1" as="geometry" />
        </mxCell>
        <mxCell id="fML5AShdrzJ3hRmlHjl2-35" style="edgeStyle=none;rounded=0;orthogonalLoop=1;jettySize=auto;html=1;exitX=1;exitY=1;exitDx=0;exitDy=0;endArrow=none;endFill=0;fontSize=20;" parent="WvKr8OuWu00IRbeVMBMV-1" source="fML5AShdrzJ3hRmlHjl2-38" target="fML5AShdrzJ3hRmlHjl2-40" edge="1">
          <mxGeometry relative="1" as="geometry" />
        </mxCell>
        <mxCell id="fML5AShdrzJ3hRmlHjl2-36" style="edgeStyle=none;rounded=0;orthogonalLoop=1;jettySize=auto;html=1;exitX=0;exitY=0;exitDx=0;exitDy=0;endArrow=none;endFill=0;fontSize=20;" parent="WvKr8OuWu00IRbeVMBMV-1" source="fML5AShdrzJ3hRmlHjl2-38" target="fML5AShdrzJ3hRmlHjl2-33" edge="1">
          <mxGeometry relative="1" as="geometry" />
        </mxCell>
        <mxCell id="fML5AShdrzJ3hRmlHjl2-37" style="edgeStyle=none;rounded=0;orthogonalLoop=1;jettySize=auto;html=1;exitX=0;exitY=1;exitDx=0;exitDy=0;endArrow=none;endFill=0;fontSize=20;" parent="WvKr8OuWu00IRbeVMBMV-1" source="fML5AShdrzJ3hRmlHjl2-38" target="fML5AShdrzJ3hRmlHjl2-41" edge="1">
          <mxGeometry relative="1" as="geometry" />
        </mxCell>
        <mxCell id="fML5AShdrzJ3hRmlHjl2-46" style="edgeStyle=none;rounded=0;orthogonalLoop=1;jettySize=auto;html=1;exitX=0.5;exitY=0;exitDx=0;exitDy=0;endArrow=none;endFill=0;fontSize=20;" parent="WvKr8OuWu00IRbeVMBMV-1" source="fML5AShdrzJ3hRmlHjl2-38" target="fML5AShdrzJ3hRmlHjl2-44" edge="1">
          <mxGeometry relative="1" as="geometry" />
        </mxCell>
        <mxCell id="fML5AShdrzJ3hRmlHjl2-47" style="edgeStyle=none;rounded=0;orthogonalLoop=1;jettySize=auto;html=1;exitX=1;exitY=0.5;exitDx=0;exitDy=0;endArrow=none;endFill=0;fontSize=20;" parent="WvKr8OuWu00IRbeVMBMV-1" source="fML5AShdrzJ3hRmlHjl2-38" target="fML5AShdrzJ3hRmlHjl2-45" edge="1">
          <mxGeometry relative="1" as="geometry" />
        </mxCell>
        <mxCell id="fML5AShdrzJ3hRmlHjl2-38" value="" style="ellipse;whiteSpace=wrap;html=1;aspect=fixed;fontSize=20;" parent="WvKr8OuWu00IRbeVMBMV-1" vertex="1">
          <mxGeometry x="592.5" y="1070" width="30" height="30" as="geometry" />
        </mxCell>
        <mxCell id="fML5AShdrzJ3hRmlHjl2-39" value="" style="ellipse;whiteSpace=wrap;html=1;aspect=fixed;fontSize=20;" parent="WvKr8OuWu00IRbeVMBMV-1" vertex="1">
          <mxGeometry x="657.5" y="1010" width="30" height="30" as="geometry" />
        </mxCell>
        <mxCell id="fML5AShdrzJ3hRmlHjl2-40" value="" style="ellipse;whiteSpace=wrap;html=1;aspect=fixed;fontSize=20;" parent="WvKr8OuWu00IRbeVMBMV-1" vertex="1">
          <mxGeometry x="657.5" y="1110" width="30" height="30" as="geometry" />
        </mxCell>
        <mxCell id="fML5AShdrzJ3hRmlHjl2-41" value="" style="ellipse;whiteSpace=wrap;html=1;aspect=fixed;fontSize=20;" parent="WvKr8OuWu00IRbeVMBMV-1" vertex="1">
          <mxGeometry x="560" y="1110" width="30" height="30" as="geometry" />
        </mxCell>
        <mxCell id="fML5AShdrzJ3hRmlHjl2-44" value="" style="ellipse;whiteSpace=wrap;html=1;aspect=fixed;fontSize=20;" parent="WvKr8OuWu00IRbeVMBMV-1" vertex="1">
          <mxGeometry x="600" y="1025" width="30" height="30" as="geometry" />
        </mxCell>
        <mxCell id="fML5AShdrzJ3hRmlHjl2-45" value="" style="ellipse;whiteSpace=wrap;html=1;aspect=fixed;fontSize=20;" parent="WvKr8OuWu00IRbeVMBMV-1" vertex="1">
          <mxGeometry x="645" y="1055" width="30" height="30" as="geometry" />
        </mxCell>
        <mxCell id="fML5AShdrzJ3hRmlHjl2-48" value="" style="endArrow=none;dashed=1;html=1;fontSize=20;" parent="WvKr8OuWu00IRbeVMBMV-1" source="fML5AShdrzJ3hRmlHjl2-26" target="fML5AShdrzJ3hRmlHjl2-33" edge="1">
          <mxGeometry width="50" height="50" relative="1" as="geometry">
            <mxPoint x="370" y="1080" as="sourcePoint" />
            <mxPoint x="420" y="1030" as="targetPoint" />
          </mxGeometry>
        </mxCell>
        <mxCell id="fML5AShdrzJ3hRmlHjl2-51" value="" style="endArrow=none;dashed=1;html=1;fontSize=20;" parent="WvKr8OuWu00IRbeVMBMV-1" source="fML5AShdrzJ3hRmlHjl2-24" target="fML5AShdrzJ3hRmlHjl2-44" edge="1">
          <mxGeometry width="50" height="50" relative="1" as="geometry">
            <mxPoint x="359.9999999999999" y="1065" as="sourcePoint" />
            <mxPoint x="557.5" y="1065" as="targetPoint" />
            <Array as="points">
              <mxPoint x="440" y="1010" />
            </Array>
          </mxGeometry>
        </mxCell>
        <mxCell id="fML5AShdrzJ3hRmlHjl2-59" value="sameAs" style="text;html=1;align=center;verticalAlign=middle;resizable=0;points=[];labelBackgroundColor=#ffffff;fontSize=20;" parent="fML5AShdrzJ3hRmlHjl2-51" vertex="1" connectable="0">
          <mxGeometry x="-0.129" relative="1" as="geometry">
            <mxPoint as="offset" />
          </mxGeometry>
        </mxCell>
        <mxCell id="fML5AShdrzJ3hRmlHjl2-52" value="" style="endArrow=none;dashed=1;html=1;fontSize=20;" parent="WvKr8OuWu00IRbeVMBMV-1" source="fML5AShdrzJ3hRmlHjl2-25" target="fML5AShdrzJ3hRmlHjl2-38" edge="1">
          <mxGeometry width="50" height="50" relative="1" as="geometry">
            <mxPoint x="369.9999999999999" y="1075" as="sourcePoint" />
            <mxPoint x="567.5" y="1075" as="targetPoint" />
          </mxGeometry>
        </mxCell>
        <mxCell id="fML5AShdrzJ3hRmlHjl2-55" value="融合的KG" style="text;html=1;strokeColor=none;fillColor=none;align=center;verticalAlign=middle;whiteSpace=wrap;rounded=0;fontSize=20;" parent="WvKr8OuWu00IRbeVMBMV-1" vertex="1">
          <mxGeometry x="185" y="1075" width="40" height="20" as="geometry" />
        </mxCell>
        <mxCell id="fML5AShdrzJ3hRmlHjl2-56" value="CNDB" style="text;html=1;strokeColor=none;fillColor=none;align=center;verticalAlign=middle;whiteSpace=wrap;rounded=0;fontSize=20;" parent="WvKr8OuWu00IRbeVMBMV-1" vertex="1">
          <mxGeometry x="280" y="1149" width="40" height="20" as="geometry" />
        </mxCell>
        <mxCell id="fML5AShdrzJ3hRmlHjl2-58" value="UGC" style="text;html=1;strokeColor=none;fillColor=none;align=center;verticalAlign=middle;whiteSpace=wrap;rounded=0;fontSize=20;" parent="WvKr8OuWu00IRbeVMBMV-1" vertex="1">
          <mxGeometry x="595" y="1160" width="40" height="20" as="geometry" />
        </mxCell>
      </root>
    </mxGraphModel>
  </diagram>
  <diagram id="2LKGnwcVZcoGmNcnAT5E" name="Page-3">
    <mxGraphModel dx="1621" dy="644" grid="1" gridSize="10" guides="1" tooltips="1" connect="1" arrows="1" fold="1" page="1" pageScale="1" pageWidth="827" pageHeight="1169" math="0" shadow="0">
      <root>
        <mxCell id="AJUkQtCNoXOJ8t4KscYt-0" />
        <mxCell id="AJUkQtCNoXOJ8t4KscYt-1" parent="AJUkQtCNoXOJ8t4KscYt-0" />
        <mxCell id="AJUkQtCNoXOJ8t4KscYt-113" value="" style="rounded=0;whiteSpace=wrap;html=1;fontSize=19;align=center;" vertex="1" parent="AJUkQtCNoXOJ8t4KscYt-1">
          <mxGeometry x="100" y="260" width="274" height="250" as="geometry" />
        </mxCell>
        <mxCell id="AJUkQtCNoXOJ8t4KscYt-66" value="" style="strokeWidth=2;html=1;shape=mxgraph.flowchart.annotation_1;align=left;pointerEvents=1;fontSize=20;" vertex="1" parent="AJUkQtCNoXOJ8t4KscYt-1">
          <mxGeometry x="585" y="270.5" width="20" height="120" as="geometry" />
        </mxCell>
        <mxCell id="AJUkQtCNoXOJ8t4KscYt-23" value="" style="rounded=0;whiteSpace=wrap;html=1;fontSize=37;align=center;" vertex="1" parent="AJUkQtCNoXOJ8t4KscYt-1">
          <mxGeometry x="590" y="60" width="160" height="70" as="geometry" />
        </mxCell>
        <mxCell id="AJUkQtCNoXOJ8t4KscYt-19" value="" style="rounded=0;whiteSpace=wrap;html=1;fontSize=37;align=center;" vertex="1" parent="AJUkQtCNoXOJ8t4KscYt-1">
          <mxGeometry x="420" y="60" width="160" height="70" as="geometry" />
        </mxCell>
        <mxCell id="AJUkQtCNoXOJ8t4KscYt-54" value="" style="edgeStyle=orthogonalEdgeStyle;rounded=0;orthogonalLoop=1;jettySize=auto;html=1;fontSize=20;" edge="1" parent="AJUkQtCNoXOJ8t4KscYt-1" source="AJUkQtCNoXOJ8t4KscYt-2" target="AJUkQtCNoXOJ8t4KscYt-3">
          <mxGeometry relative="1" as="geometry" />
        </mxCell>
        <mxCell id="AJUkQtCNoXOJ8t4KscYt-2" value="" style="outlineConnect=0;fontColor=#232F3E;gradientColor=#60A337;gradientDirection=north;fillColor=#277116;strokeColor=#ffffff;dashed=0;verticalLabelPosition=bottom;verticalAlign=top;align=center;html=1;fontSize=12;fontStyle=0;aspect=fixed;shape=mxgraph.aws4.resourceIcon;resIcon=mxgraph.aws4.elastic_file_system;" vertex="1" parent="AJUkQtCNoXOJ8t4KscYt-1">
          <mxGeometry x="-25" y="313" width="80" height="80" as="geometry" />
        </mxCell>
        <mxCell id="AJUkQtCNoXOJ8t4KscYt-55" style="edgeStyle=orthogonalEdgeStyle;rounded=0;orthogonalLoop=1;jettySize=auto;html=1;exitX=0.5;exitY=0;exitDx=0;exitDy=0;entryX=0.5;entryY=1;entryDx=0;entryDy=0;fontSize=20;" edge="1" parent="AJUkQtCNoXOJ8t4KscYt-1" source="AJUkQtCNoXOJ8t4KscYt-3" target="AJUkQtCNoXOJ8t4KscYt-4">
          <mxGeometry relative="1" as="geometry" />
        </mxCell>
        <mxCell id="AJUkQtCNoXOJ8t4KscYt-3" value="数据接口" style="rounded=0;whiteSpace=wrap;html=1;fontSize=20;" vertex="1" parent="AJUkQtCNoXOJ8t4KscYt-1">
          <mxGeometry x="-40" y="185" width="110" height="50" as="geometry" />
        </mxCell>
        <mxCell id="AJUkQtCNoXOJ8t4KscYt-6" value="" style="edgeStyle=orthogonalEdgeStyle;rounded=0;orthogonalLoop=1;jettySize=auto;html=1;fontSize=20;" edge="1" parent="AJUkQtCNoXOJ8t4KscYt-1" source="AJUkQtCNoXOJ8t4KscYt-4" target="AJUkQtCNoXOJ8t4KscYt-5">
          <mxGeometry relative="1" as="geometry" />
        </mxCell>
        <mxCell id="AJUkQtCNoXOJ8t4KscYt-4" value="数据预处理" style="rounded=0;whiteSpace=wrap;html=1;fontSize=20;" vertex="1" parent="AJUkQtCNoXOJ8t4KscYt-1">
          <mxGeometry x="-40" y="40" width="110" height="80" as="geometry" />
        </mxCell>
        <mxCell id="AJUkQtCNoXOJ8t4KscYt-9" style="edgeStyle=orthogonalEdgeStyle;rounded=0;orthogonalLoop=1;jettySize=auto;html=1;exitX=1;exitY=0.5;exitDx=0;exitDy=0;entryX=0;entryY=0.5;entryDx=0;entryDy=0;" edge="1" parent="AJUkQtCNoXOJ8t4KscYt-1" source="AJUkQtCNoXOJ8t4KscYt-5" target="AJUkQtCNoXOJ8t4KscYt-7">
          <mxGeometry relative="1" as="geometry" />
        </mxCell>
        <mxCell id="AJUkQtCNoXOJ8t4KscYt-10" style="edgeStyle=orthogonalEdgeStyle;rounded=0;orthogonalLoop=1;jettySize=auto;html=1;exitX=1;exitY=0.5;exitDx=0;exitDy=0;entryX=0;entryY=0.5;entryDx=0;entryDy=0;" edge="1" parent="AJUkQtCNoXOJ8t4KscYt-1" source="AJUkQtCNoXOJ8t4KscYt-5" target="AJUkQtCNoXOJ8t4KscYt-8">
          <mxGeometry relative="1" as="geometry" />
        </mxCell>
        <mxCell id="AJUkQtCNoXOJ8t4KscYt-5" value="时间区间选择" style="rounded=0;whiteSpace=wrap;html=1;fontSize=20;" vertex="1" parent="AJUkQtCNoXOJ8t4KscYt-1">
          <mxGeometry x="140" y="50" width="100" height="60" as="geometry" />
        </mxCell>
        <mxCell id="AJUkQtCNoXOJ8t4KscYt-30" style="edgeStyle=orthogonalEdgeStyle;rounded=0;orthogonalLoop=1;jettySize=auto;html=1;exitX=1;exitY=0.5;exitDx=0;exitDy=0;entryX=0.5;entryY=0;entryDx=0;entryDy=0;fontSize=12;" edge="1" parent="AJUkQtCNoXOJ8t4KscYt-1" source="AJUkQtCNoXOJ8t4KscYt-7" target="AJUkQtCNoXOJ8t4KscYt-19">
          <mxGeometry relative="1" as="geometry" />
        </mxCell>
        <mxCell id="AJUkQtCNoXOJ8t4KscYt-7" value="客户&lt;br&gt;信息" style="rounded=0;whiteSpace=wrap;html=1;fontSize=20;" vertex="1" parent="AJUkQtCNoXOJ8t4KscYt-1">
          <mxGeometry x="280" y="10" width="80" height="60" as="geometry" />
        </mxCell>
        <mxCell id="AJUkQtCNoXOJ8t4KscYt-33" value="" style="edgeStyle=orthogonalEdgeStyle;rounded=0;orthogonalLoop=1;jettySize=auto;html=1;fontSize=20;" edge="1" parent="AJUkQtCNoXOJ8t4KscYt-1" source="AJUkQtCNoXOJ8t4KscYt-8" target="AJUkQtCNoXOJ8t4KscYt-32">
          <mxGeometry relative="1" as="geometry" />
        </mxCell>
        <mxCell id="AJUkQtCNoXOJ8t4KscYt-8" value="多个分析维度" style="rounded=0;whiteSpace=wrap;html=1;fontSize=20;" vertex="1" parent="AJUkQtCNoXOJ8t4KscYt-1">
          <mxGeometry x="280" y="90" width="80" height="60" as="geometry" />
        </mxCell>
        <mxCell id="AJUkQtCNoXOJ8t4KscYt-34" style="edgeStyle=orthogonalEdgeStyle;rounded=0;orthogonalLoop=1;jettySize=auto;html=1;exitX=1;exitY=0.5;exitDx=0;exitDy=0;entryX=0.5;entryY=1;entryDx=0;entryDy=0;fontSize=12;" edge="1" parent="AJUkQtCNoXOJ8t4KscYt-1" source="AJUkQtCNoXOJ8t4KscYt-32" target="AJUkQtCNoXOJ8t4KscYt-23">
          <mxGeometry relative="1" as="geometry" />
        </mxCell>
        <mxCell id="AJUkQtCNoXOJ8t4KscYt-32" value="对每个&lt;br style=&quot;font-size: 20px;&quot;&gt;分析维度" style="rounded=0;whiteSpace=wrap;html=1;fontSize=20;" vertex="1" parent="AJUkQtCNoXOJ8t4KscYt-1">
          <mxGeometry x="260" y="180" width="120" height="60" as="geometry" />
        </mxCell>
        <mxCell id="AJUkQtCNoXOJ8t4KscYt-11" value="" style="html=1;verticalLabelPosition=bottom;align=center;labelBackgroundColor=#ffffff;verticalAlign=top;strokeWidth=2;strokeColor=#82b366;shadow=0;dashed=0;shape=mxgraph.ios7.icons.user;fillColor=#d5e8d4;" vertex="1" parent="AJUkQtCNoXOJ8t4KscYt-1">
          <mxGeometry x="430" y="65" width="30" height="30" as="geometry" />
        </mxCell>
        <mxCell id="AJUkQtCNoXOJ8t4KscYt-12" value="" style="html=1;verticalLabelPosition=bottom;align=center;labelBackgroundColor=#ffffff;verticalAlign=top;strokeWidth=2;strokeColor=#82b366;shadow=0;dashed=0;shape=mxgraph.ios7.icons.user;fillColor=#d5e8d4;" vertex="1" parent="AJUkQtCNoXOJ8t4KscYt-1">
          <mxGeometry x="470" y="65" width="30" height="30" as="geometry" />
        </mxCell>
        <mxCell id="AJUkQtCNoXOJ8t4KscYt-13" value="" style="html=1;verticalLabelPosition=bottom;align=center;labelBackgroundColor=#ffffff;verticalAlign=top;strokeWidth=2;strokeColor=#82b366;shadow=0;dashed=0;shape=mxgraph.ios7.icons.user;fillColor=#d5e8d4;" vertex="1" parent="AJUkQtCNoXOJ8t4KscYt-1">
          <mxGeometry x="540" y="65" width="30" height="30" as="geometry" />
        </mxCell>
        <mxCell id="AJUkQtCNoXOJ8t4KscYt-14" value="..." style="text;html=1;strokeColor=none;fillColor=none;align=center;verticalAlign=bottom;whiteSpace=wrap;rounded=0;fontSize=37;" vertex="1" parent="AJUkQtCNoXOJ8t4KscYt-1">
          <mxGeometry x="500" y="65" width="40" height="30" as="geometry" />
        </mxCell>
        <mxCell id="AJUkQtCNoXOJ8t4KscYt-18" value="..." style="text;html=1;strokeColor=none;fillColor=none;align=center;verticalAlign=bottom;whiteSpace=wrap;rounded=0;fontSize=37;" vertex="1" parent="AJUkQtCNoXOJ8t4KscYt-1">
          <mxGeometry x="670" y="65" width="40" height="30" as="geometry" />
        </mxCell>
        <mxCell id="AJUkQtCNoXOJ8t4KscYt-20" value="" style="ellipse;whiteSpace=wrap;html=1;aspect=fixed;fontSize=37;align=center;fillColor=#f8cecc;strokeColor=#b85450;" vertex="1" parent="AJUkQtCNoXOJ8t4KscYt-1">
          <mxGeometry x="600" y="65" width="30" height="30" as="geometry" />
        </mxCell>
        <mxCell id="AJUkQtCNoXOJ8t4KscYt-21" value="" style="ellipse;whiteSpace=wrap;html=1;aspect=fixed;fontSize=37;align=center;fillColor=#f8cecc;strokeColor=#b85450;" vertex="1" parent="AJUkQtCNoXOJ8t4KscYt-1">
          <mxGeometry x="640" y="65" width="30" height="30" as="geometry" />
        </mxCell>
        <mxCell id="AJUkQtCNoXOJ8t4KscYt-22" value="" style="ellipse;whiteSpace=wrap;html=1;aspect=fixed;fontSize=37;align=center;fillColor=#f8cecc;strokeColor=#b85450;" vertex="1" parent="AJUkQtCNoXOJ8t4KscYt-1">
          <mxGeometry x="710" y="65" width="30" height="30" as="geometry" />
        </mxCell>
        <mxCell id="AJUkQtCNoXOJ8t4KscYt-24" value="u&lt;sub style=&quot;font-size: 20px;&quot;&gt;1&lt;/sub&gt;" style="text;html=1;strokeColor=none;fillColor=none;align=center;verticalAlign=middle;whiteSpace=wrap;rounded=0;fontSize=20;" vertex="1" parent="AJUkQtCNoXOJ8t4KscYt-1">
          <mxGeometry x="432.5" y="100" width="25" height="20" as="geometry" />
        </mxCell>
        <mxCell id="AJUkQtCNoXOJ8t4KscYt-25" value="u&lt;sub style=&quot;font-size: 20px;&quot;&gt;2&lt;/sub&gt;" style="text;html=1;strokeColor=none;fillColor=none;align=center;verticalAlign=middle;whiteSpace=wrap;rounded=0;fontSize=20;" vertex="1" parent="AJUkQtCNoXOJ8t4KscYt-1">
          <mxGeometry x="472.5" y="100" width="25" height="20" as="geometry" />
        </mxCell>
        <mxCell id="AJUkQtCNoXOJ8t4KscYt-26" value="u&lt;sub style=&quot;font-size: 20px&quot;&gt;n&lt;/sub&gt;" style="text;html=1;strokeColor=none;fillColor=none;align=center;verticalAlign=middle;whiteSpace=wrap;rounded=0;fontSize=20;" vertex="1" parent="AJUkQtCNoXOJ8t4KscYt-1">
          <mxGeometry x="542.5" y="100" width="25" height="20" as="geometry" />
        </mxCell>
        <mxCell id="AJUkQtCNoXOJ8t4KscYt-27" value="v&lt;sub style=&quot;font-size: 20px;&quot;&gt;1&lt;/sub&gt;" style="text;html=1;strokeColor=none;fillColor=none;align=center;verticalAlign=middle;whiteSpace=wrap;rounded=0;fontSize=20;" vertex="1" parent="AJUkQtCNoXOJ8t4KscYt-1">
          <mxGeometry x="605" y="100" width="25" height="20" as="geometry" />
        </mxCell>
        <mxCell id="AJUkQtCNoXOJ8t4KscYt-28" value="v&lt;sub style=&quot;font-size: 20px;&quot;&gt;2&lt;/sub&gt;" style="text;html=1;strokeColor=none;fillColor=none;align=center;verticalAlign=middle;whiteSpace=wrap;rounded=0;fontSize=20;" vertex="1" parent="AJUkQtCNoXOJ8t4KscYt-1">
          <mxGeometry x="645" y="100" width="25" height="20" as="geometry" />
        </mxCell>
        <mxCell id="AJUkQtCNoXOJ8t4KscYt-29" value="v&lt;sub style=&quot;font-size: 20px&quot;&gt;m&lt;/sub&gt;" style="text;html=1;strokeColor=none;fillColor=none;align=center;verticalAlign=middle;whiteSpace=wrap;rounded=0;fontSize=20;" vertex="1" parent="AJUkQtCNoXOJ8t4KscYt-1">
          <mxGeometry x="715" y="100" width="25" height="20" as="geometry" />
        </mxCell>
        <mxCell id="AJUkQtCNoXOJ8t4KscYt-31" value="去重" style="text;html=1;strokeColor=none;fillColor=none;align=center;verticalAlign=middle;whiteSpace=wrap;rounded=0;fontSize=20;" vertex="1" parent="AJUkQtCNoXOJ8t4KscYt-1">
          <mxGeometry x="400" y="10" width="50" height="30" as="geometry" />
        </mxCell>
        <mxCell id="AJUkQtCNoXOJ8t4KscYt-35" value="去重" style="text;html=1;strokeColor=none;fillColor=none;align=center;verticalAlign=middle;whiteSpace=wrap;rounded=0;fontSize=20;" vertex="1" parent="AJUkQtCNoXOJ8t4KscYt-1">
          <mxGeometry x="460" y="180" width="70" height="30" as="geometry" />
        </mxCell>
        <mxCell id="AJUkQtCNoXOJ8t4KscYt-36" value="" style="shape=curlyBracket;whiteSpace=wrap;html=1;rounded=1;fontSize=12;align=center;" vertex="1" parent="AJUkQtCNoXOJ8t4KscYt-1">
          <mxGeometry x="394" y="60" width="20" height="70" as="geometry" />
        </mxCell>
        <mxCell id="AJUkQtCNoXOJ8t4KscYt-37" value="" style="shape=curlyBracket;whiteSpace=wrap;html=1;rounded=1;fontSize=12;align=center;rotation=-180;" vertex="1" parent="AJUkQtCNoXOJ8t4KscYt-1">
          <mxGeometry x="757" y="60" width="20" height="70" as="geometry" />
        </mxCell>
        <mxCell id="AJUkQtCNoXOJ8t4KscYt-38" value="" style="strokeWidth=2;html=1;shape=mxgraph.flowchart.annotation_1;align=left;pointerEvents=1;fontSize=20;rotation=-180;" vertex="1" parent="AJUkQtCNoXOJ8t4KscYt-1">
          <mxGeometry x="730" y="270.5" width="20" height="120" as="geometry" />
        </mxCell>
        <mxCell id="AJUkQtCNoXOJ8t4KscYt-41" value="0" style="text;html=1;strokeColor=none;fillColor=none;align=center;verticalAlign=middle;whiteSpace=wrap;rounded=0;fontSize=20;" vertex="1" parent="AJUkQtCNoXOJ8t4KscYt-1">
          <mxGeometry x="590" y="272.5" width="25" height="20" as="geometry" />
        </mxCell>
        <mxCell id="AJUkQtCNoXOJ8t4KscYt-42" value="0" style="text;html=1;strokeColor=none;fillColor=none;align=center;verticalAlign=middle;whiteSpace=wrap;rounded=0;fontSize=20;" vertex="1" parent="AJUkQtCNoXOJ8t4KscYt-1">
          <mxGeometry x="722.5" y="272.5" width="25" height="20" as="geometry" />
        </mxCell>
        <mxCell id="AJUkQtCNoXOJ8t4KscYt-44" value="...." style="text;html=1;strokeColor=none;fillColor=none;align=center;verticalAlign=bottom;whiteSpace=wrap;rounded=0;fontSize=37;" vertex="1" parent="AJUkQtCNoXOJ8t4KscYt-1">
          <mxGeometry x="642.5" y="267.5" width="40" height="30" as="geometry" />
        </mxCell>
        <mxCell id="AJUkQtCNoXOJ8t4KscYt-46" value="0" style="text;html=1;strokeColor=none;fillColor=none;align=center;verticalAlign=middle;whiteSpace=wrap;rounded=0;fontSize=20;" vertex="1" parent="AJUkQtCNoXOJ8t4KscYt-1">
          <mxGeometry x="590" y="367.5" width="25" height="20" as="geometry" />
        </mxCell>
        <mxCell id="AJUkQtCNoXOJ8t4KscYt-47" value="0" style="text;html=1;strokeColor=none;fillColor=none;align=center;verticalAlign=middle;whiteSpace=wrap;rounded=0;fontSize=20;" vertex="1" parent="AJUkQtCNoXOJ8t4KscYt-1">
          <mxGeometry x="722.5" y="368" width="25" height="20" as="geometry" />
        </mxCell>
        <mxCell id="AJUkQtCNoXOJ8t4KscYt-48" value="...." style="text;html=1;strokeColor=none;fillColor=none;align=center;verticalAlign=bottom;whiteSpace=wrap;rounded=0;fontSize=37;" vertex="1" parent="AJUkQtCNoXOJ8t4KscYt-1">
          <mxGeometry x="642.5" y="362.5" width="40" height="30" as="geometry" />
        </mxCell>
        <mxCell id="AJUkQtCNoXOJ8t4KscYt-49" value="........" style="text;html=1;strokeColor=none;fillColor=none;align=center;verticalAlign=bottom;whiteSpace=wrap;rounded=0;fontSize=37;rotation=45;" vertex="1" parent="AJUkQtCNoXOJ8t4KscYt-1">
          <mxGeometry x="642.5" y="315.5" width="40" height="30" as="geometry" />
        </mxCell>
        <mxCell id="AJUkQtCNoXOJ8t4KscYt-57" style="edgeStyle=orthogonalEdgeStyle;rounded=0;orthogonalLoop=1;jettySize=auto;html=1;exitX=0.1;exitY=0.5;exitDx=0;exitDy=0;exitPerimeter=0;fontSize=20;entryX=0;entryY=0.5;entryDx=0;entryDy=0;entryPerimeter=0;" edge="1" parent="AJUkQtCNoXOJ8t4KscYt-1" source="AJUkQtCNoXOJ8t4KscYt-37" target="AJUkQtCNoXOJ8t4KscYt-38">
          <mxGeometry relative="1" as="geometry">
            <mxPoint x="760" y="328" as="targetPoint" />
            <mxPoint x="775" y="95" as="sourcePoint" />
            <Array as="points">
              <mxPoint x="800" y="95" />
              <mxPoint x="800" y="330" />
              <mxPoint x="760" y="330" />
            </Array>
          </mxGeometry>
        </mxCell>
        <mxCell id="AJUkQtCNoXOJ8t4KscYt-59" value="初始邻接矩阵" style="text;html=1;strokeColor=none;fillColor=none;align=center;verticalAlign=middle;whiteSpace=wrap;rounded=0;fontSize=20;" vertex="1" parent="AJUkQtCNoXOJ8t4KscYt-1">
          <mxGeometry x="587.5" y="402.5" width="160" height="20" as="geometry" />
        </mxCell>
        <mxCell id="AJUkQtCNoXOJ8t4KscYt-60" value="u&lt;sub&gt;1&lt;/sub&gt;" style="text;html=1;strokeColor=none;fillColor=none;align=center;verticalAlign=middle;whiteSpace=wrap;rounded=0;fontSize=20;" vertex="1" parent="AJUkQtCNoXOJ8t4KscYt-1">
          <mxGeometry x="550" y="273" width="25" height="20" as="geometry" />
        </mxCell>
        <mxCell id="AJUkQtCNoXOJ8t4KscYt-61" value="u&lt;span style=&quot;font-size: 16.6667px&quot;&gt;&lt;sub&gt;n&lt;/sub&gt;&lt;/span&gt;" style="text;html=1;strokeColor=none;fillColor=none;align=center;verticalAlign=middle;whiteSpace=wrap;rounded=0;fontSize=20;" vertex="1" parent="AJUkQtCNoXOJ8t4KscYt-1">
          <mxGeometry x="550" y="308" width="25" height="20" as="geometry" />
        </mxCell>
        <mxCell id="AJUkQtCNoXOJ8t4KscYt-62" value="v&lt;sub&gt;1&lt;/sub&gt;" style="text;html=1;strokeColor=none;fillColor=none;align=center;verticalAlign=middle;whiteSpace=wrap;rounded=0;fontSize=20;" vertex="1" parent="AJUkQtCNoXOJ8t4KscYt-1">
          <mxGeometry x="550" y="333" width="25" height="20" as="geometry" />
        </mxCell>
        <mxCell id="AJUkQtCNoXOJ8t4KscYt-63" value="v&lt;span style=&quot;font-size: 16.6667px&quot;&gt;&lt;sub&gt;n&lt;/sub&gt;&lt;/span&gt;" style="text;html=1;strokeColor=none;fillColor=none;align=center;verticalAlign=middle;whiteSpace=wrap;rounded=0;fontSize=20;" vertex="1" parent="AJUkQtCNoXOJ8t4KscYt-1">
          <mxGeometry x="550" y="368" width="25" height="20" as="geometry" />
        </mxCell>
        <mxCell id="AJUkQtCNoXOJ8t4KscYt-64" value="..." style="text;html=1;strokeColor=none;fillColor=none;align=center;verticalAlign=bottom;whiteSpace=wrap;rounded=0;fontSize=19;rotation=90;" vertex="1" parent="AJUkQtCNoXOJ8t4KscYt-1">
          <mxGeometry x="545" y="298" width="27.5" height="10" as="geometry" />
        </mxCell>
        <mxCell id="AJUkQtCNoXOJ8t4KscYt-65" value="..." style="text;html=1;strokeColor=none;fillColor=none;align=center;verticalAlign=bottom;whiteSpace=wrap;rounded=0;fontSize=19;rotation=90;" vertex="1" parent="AJUkQtCNoXOJ8t4KscYt-1">
          <mxGeometry x="545" y="358" width="27.5" height="10" as="geometry" />
        </mxCell>
        <mxCell id="AJUkQtCNoXOJ8t4KscYt-69" value="u&lt;sub&gt;1&lt;/sub&gt;" style="text;html=1;strokeColor=none;fillColor=none;align=center;verticalAlign=middle;whiteSpace=wrap;rounded=0;fontSize=20;" vertex="1" parent="AJUkQtCNoXOJ8t4KscYt-1">
          <mxGeometry x="590" y="247.5" width="25" height="20" as="geometry" />
        </mxCell>
        <mxCell id="AJUkQtCNoXOJ8t4KscYt-70" value="u&lt;span style=&quot;font-size: 16.6667px&quot;&gt;&lt;sub&gt;n&lt;/sub&gt;&lt;/span&gt;" style="text;html=1;strokeColor=none;fillColor=none;align=center;verticalAlign=middle;whiteSpace=wrap;rounded=0;fontSize=20;" vertex="1" parent="AJUkQtCNoXOJ8t4KscYt-1">
          <mxGeometry x="637.5" y="247.5" width="25" height="20" as="geometry" />
        </mxCell>
        <mxCell id="AJUkQtCNoXOJ8t4KscYt-71" value="v&lt;sub&gt;1&lt;/sub&gt;" style="text;html=1;strokeColor=none;fillColor=none;align=center;verticalAlign=middle;whiteSpace=wrap;rounded=0;fontSize=20;" vertex="1" parent="AJUkQtCNoXOJ8t4KscYt-1">
          <mxGeometry x="665" y="247.5" width="25" height="20" as="geometry" />
        </mxCell>
        <mxCell id="AJUkQtCNoXOJ8t4KscYt-72" value="v&lt;span style=&quot;font-size: 16.6667px&quot;&gt;&lt;sub&gt;n&lt;/sub&gt;&lt;/span&gt;" style="text;html=1;strokeColor=none;fillColor=none;align=center;verticalAlign=middle;whiteSpace=wrap;rounded=0;fontSize=20;" vertex="1" parent="AJUkQtCNoXOJ8t4KscYt-1">
          <mxGeometry x="720" y="247.5" width="25" height="20" as="geometry" />
        </mxCell>
        <mxCell id="AJUkQtCNoXOJ8t4KscYt-73" value="..." style="text;html=1;strokeColor=none;fillColor=none;align=center;verticalAlign=bottom;whiteSpace=wrap;rounded=0;fontSize=19;rotation=0;" vertex="1" parent="AJUkQtCNoXOJ8t4KscYt-1">
          <mxGeometry x="612.5" y="250" width="30" height="15" as="geometry" />
        </mxCell>
        <mxCell id="AJUkQtCNoXOJ8t4KscYt-74" value="..." style="text;html=1;strokeColor=none;fillColor=none;align=center;verticalAlign=bottom;whiteSpace=wrap;rounded=0;fontSize=19;rotation=0;" vertex="1" parent="AJUkQtCNoXOJ8t4KscYt-1">
          <mxGeometry x="690" y="255" width="27.5" height="10" as="geometry" />
        </mxCell>
        <mxCell id="AJUkQtCNoXOJ8t4KscYt-77" value="" style="shape=flexArrow;endArrow=classic;html=1;fontSize=19;entryX=1;entryY=0.5;entryDx=0;entryDy=0;labelBackgroundColor=#000000;labelBorderColor=none;" edge="1" parent="AJUkQtCNoXOJ8t4KscYt-1" target="AJUkQtCNoXOJ8t4KscYt-78">
          <mxGeometry width="50" height="50" relative="1" as="geometry">
            <mxPoint x="545" y="332.5" as="sourcePoint" />
            <mxPoint x="535" y="412.5" as="targetPoint" />
          </mxGeometry>
        </mxCell>
        <mxCell id="AJUkQtCNoXOJ8t4KscYt-78" value="根据数据&lt;br&gt;内容更新&lt;br&gt;邻接矩阵" style="rounded=0;whiteSpace=wrap;html=1;fontSize=19;align=center;" vertex="1" parent="AJUkQtCNoXOJ8t4KscYt-1">
          <mxGeometry x="423" y="292.5" width="90" height="80.5" as="geometry" />
        </mxCell>
        <mxCell id="AJUkQtCNoXOJ8t4KscYt-79" value="" style="html=1;verticalLabelPosition=bottom;align=center;labelBackgroundColor=#ffffff;verticalAlign=top;strokeWidth=2;strokeColor=#666666;shadow=0;dashed=0;shape=mxgraph.ios7.icons.user;fillColor=#f5f5f5;fontColor=#333333;" vertex="1" parent="AJUkQtCNoXOJ8t4KscYt-1">
          <mxGeometry x="114" y="322.5" width="30" height="30" as="geometry" />
        </mxCell>
        <mxCell id="AJUkQtCNoXOJ8t4KscYt-80" value="用户网络图" style="text;html=1;strokeColor=none;fillColor=none;align=center;verticalAlign=middle;whiteSpace=wrap;rounded=0;fontSize=19;" vertex="1" parent="AJUkQtCNoXOJ8t4KscYt-1">
          <mxGeometry x="169" y="265" width="120" height="20" as="geometry" />
        </mxCell>
        <mxCell id="AJUkQtCNoXOJ8t4KscYt-81" value="假设阈值=2" style="text;html=1;strokeColor=none;fillColor=none;align=center;verticalAlign=middle;whiteSpace=wrap;rounded=0;fontSize=19;" vertex="1" parent="AJUkQtCNoXOJ8t4KscYt-1">
          <mxGeometry x="169" y="292.5" width="120" height="20" as="geometry" />
        </mxCell>
        <mxCell id="AJUkQtCNoXOJ8t4KscYt-84" value="" style="verticalLabelPosition=bottom;html=1;verticalAlign=top;align=center;strokeColor=#666666;fillColor=#f5f5f5;shape=mxgraph.azure.computer;pointerEvents=1;fontSize=19;fontColor=#333333;" vertex="1" parent="AJUkQtCNoXOJ8t4KscYt-1">
          <mxGeometry x="114" y="367.75" width="30" height="30" as="geometry" />
        </mxCell>
        <mxCell id="AJUkQtCNoXOJ8t4KscYt-87" value="" style="html=1;verticalLabelPosition=bottom;align=center;labelBackgroundColor=#ffffff;verticalAlign=top;strokeWidth=2;strokeColor=#b85450;shadow=0;dashed=0;shape=mxgraph.ios7.icons.user;fillColor=#f8cecc;" vertex="1" parent="AJUkQtCNoXOJ8t4KscYt-1">
          <mxGeometry x="189" y="322.5" width="30" height="30" as="geometry" />
        </mxCell>
        <mxCell id="AJUkQtCNoXOJ8t4KscYt-88" value="" style="verticalLabelPosition=bottom;html=1;verticalAlign=top;align=center;strokeColor=#6c8ebf;fillColor=#dae8fc;shape=mxgraph.azure.computer;pointerEvents=1;fontSize=19;" vertex="1" parent="AJUkQtCNoXOJ8t4KscYt-1">
          <mxGeometry x="159" y="368" width="30" height="30" as="geometry" />
        </mxCell>
        <mxCell id="AJUkQtCNoXOJ8t4KscYt-90" value="" style="verticalLabelPosition=bottom;html=1;verticalAlign=top;align=center;strokeColor=#6c8ebf;fillColor=#dae8fc;shape=mxgraph.azure.computer;pointerEvents=1;fontSize=19;" vertex="1" parent="AJUkQtCNoXOJ8t4KscYt-1">
          <mxGeometry x="214" y="368" width="30" height="30" as="geometry" />
        </mxCell>
        <mxCell id="AJUkQtCNoXOJ8t4KscYt-92" value="" style="verticalLabelPosition=bottom;html=1;verticalAlign=top;align=center;strokeColor=#6c8ebf;fillColor=#dae8fc;shape=mxgraph.azure.computer;pointerEvents=1;fontSize=19;" vertex="1" parent="AJUkQtCNoXOJ8t4KscYt-1">
          <mxGeometry x="259" y="367.75" width="30" height="30" as="geometry" />
        </mxCell>
        <mxCell id="AJUkQtCNoXOJ8t4KscYt-93" value="" style="verticalLabelPosition=bottom;html=1;verticalAlign=top;align=center;strokeColor=#6c8ebf;fillColor=#dae8fc;shape=mxgraph.azure.computer;pointerEvents=1;fontSize=19;" vertex="1" parent="AJUkQtCNoXOJ8t4KscYt-1">
          <mxGeometry x="294" y="367.5" width="30" height="30" as="geometry" />
        </mxCell>
        <mxCell id="AJUkQtCNoXOJ8t4KscYt-94" value="" style="html=1;verticalLabelPosition=bottom;align=center;labelBackgroundColor=#ffffff;verticalAlign=top;strokeWidth=2;strokeColor=#b85450;shadow=0;dashed=0;shape=mxgraph.ios7.icons.user;fillColor=#f8cecc;" vertex="1" parent="AJUkQtCNoXOJ8t4KscYt-1">
          <mxGeometry x="289" y="322.5" width="30" height="30" as="geometry" />
        </mxCell>
        <mxCell id="AJUkQtCNoXOJ8t4KscYt-95" value="" style="verticalLabelPosition=bottom;html=1;verticalAlign=top;align=center;strokeColor=#6c8ebf;fillColor=#dae8fc;shape=mxgraph.azure.computer;pointerEvents=1;fontSize=19;" vertex="1" parent="AJUkQtCNoXOJ8t4KscYt-1">
          <mxGeometry x="330" y="367.5" width="30" height="30" as="geometry" />
        </mxCell>
        <mxCell id="AJUkQtCNoXOJ8t4KscYt-96" value="" style="endArrow=classic;html=1;labelBackgroundColor=#000000;fontSize=19;" edge="1" parent="AJUkQtCNoXOJ8t4KscYt-1" source="AJUkQtCNoXOJ8t4KscYt-79" target="AJUkQtCNoXOJ8t4KscYt-84">
          <mxGeometry width="50" height="50" relative="1" as="geometry">
            <mxPoint x="129" y="352.5" as="sourcePoint" />
            <mxPoint x="184" y="462.5" as="targetPoint" />
          </mxGeometry>
        </mxCell>
        <mxCell id="AJUkQtCNoXOJ8t4KscYt-97" value="" style="endArrow=classic;html=1;labelBackgroundColor=#000000;fontSize=19;" edge="1" parent="AJUkQtCNoXOJ8t4KscYt-1" source="AJUkQtCNoXOJ8t4KscYt-87" target="AJUkQtCNoXOJ8t4KscYt-88">
          <mxGeometry width="50" height="50" relative="1" as="geometry">
            <mxPoint x="139" y="362.5" as="sourcePoint" />
            <mxPoint x="139" y="377.75" as="targetPoint" />
          </mxGeometry>
        </mxCell>
        <mxCell id="AJUkQtCNoXOJ8t4KscYt-98" value="" style="endArrow=classic;html=1;labelBackgroundColor=#000000;fontSize=19;" edge="1" parent="AJUkQtCNoXOJ8t4KscYt-1" source="AJUkQtCNoXOJ8t4KscYt-87" target="AJUkQtCNoXOJ8t4KscYt-90">
          <mxGeometry width="50" height="50" relative="1" as="geometry">
            <mxPoint x="204.1098901098901" y="362.5" as="sourcePoint" />
            <mxPoint x="193.8901098901099" y="378" as="targetPoint" />
          </mxGeometry>
        </mxCell>
        <mxCell id="AJUkQtCNoXOJ8t4KscYt-99" value="" style="endArrow=classic;html=1;labelBackgroundColor=#000000;fontSize=19;" edge="1" parent="AJUkQtCNoXOJ8t4KscYt-1" source="AJUkQtCNoXOJ8t4KscYt-94" target="AJUkQtCNoXOJ8t4KscYt-92">
          <mxGeometry width="50" height="50" relative="1" as="geometry">
            <mxPoint x="214.1098901098901" y="372.5" as="sourcePoint" />
            <mxPoint x="203.8901098901099" y="388" as="targetPoint" />
          </mxGeometry>
        </mxCell>
        <mxCell id="AJUkQtCNoXOJ8t4KscYt-100" value="" style="endArrow=classic;html=1;labelBackgroundColor=#000000;fontSize=19;" edge="1" parent="AJUkQtCNoXOJ8t4KscYt-1" source="AJUkQtCNoXOJ8t4KscYt-94" target="AJUkQtCNoXOJ8t4KscYt-93">
          <mxGeometry width="50" height="50" relative="1" as="geometry">
            <mxPoint x="224.1098901098901" y="382.5" as="sourcePoint" />
            <mxPoint x="213.8901098901099" y="398" as="targetPoint" />
          </mxGeometry>
        </mxCell>
        <mxCell id="AJUkQtCNoXOJ8t4KscYt-101" value="" style="endArrow=classic;html=1;labelBackgroundColor=#000000;fontSize=19;" edge="1" parent="AJUkQtCNoXOJ8t4KscYt-1" source="AJUkQtCNoXOJ8t4KscYt-94" target="AJUkQtCNoXOJ8t4KscYt-95">
          <mxGeometry width="50" height="50" relative="1" as="geometry">
            <mxPoint x="234.1098901098901" y="392.5" as="sourcePoint" />
            <mxPoint x="223.8901098901099" y="408" as="targetPoint" />
          </mxGeometry>
        </mxCell>
        <mxCell id="AJUkQtCNoXOJ8t4KscYt-102" value="" style="html=1;verticalLabelPosition=bottom;align=center;labelBackgroundColor=#ffffff;verticalAlign=top;strokeWidth=2;strokeColor=#6c8ebf;shadow=0;dashed=0;shape=mxgraph.ios7.icons.user;fillColor=#dae8fc;" vertex="1" parent="AJUkQtCNoXOJ8t4KscYt-1">
          <mxGeometry x="159" y="422.5" width="30" height="30" as="geometry" />
        </mxCell>
        <mxCell id="AJUkQtCNoXOJ8t4KscYt-103" value="" style="html=1;verticalLabelPosition=bottom;align=center;labelBackgroundColor=#ffffff;verticalAlign=top;strokeWidth=2;strokeColor=#6c8ebf;shadow=0;dashed=0;shape=mxgraph.ios7.icons.user;fillColor=#dae8fc;" vertex="1" parent="AJUkQtCNoXOJ8t4KscYt-1">
          <mxGeometry x="289" y="422.5" width="30" height="30" as="geometry" />
        </mxCell>
        <mxCell id="AJUkQtCNoXOJ8t4KscYt-104" value="" style="html=1;verticalLabelPosition=bottom;align=center;labelBackgroundColor=#ffffff;verticalAlign=top;strokeWidth=2;strokeColor=#6c8ebf;shadow=0;dashed=0;shape=mxgraph.ios7.icons.user;fillColor=#dae8fc;" vertex="1" parent="AJUkQtCNoXOJ8t4KscYt-1">
          <mxGeometry x="234" y="422.5" width="30" height="30" as="geometry" />
        </mxCell>
        <mxCell id="AJUkQtCNoXOJ8t4KscYt-105" value="" style="endArrow=classic;html=1;labelBackgroundColor=#000000;fontSize=19;" edge="1" parent="AJUkQtCNoXOJ8t4KscYt-1" source="AJUkQtCNoXOJ8t4KscYt-88" target="AJUkQtCNoXOJ8t4KscYt-102">
          <mxGeometry width="50" height="50" relative="1" as="geometry">
            <mxPoint x="204.1098901098901" y="362.5" as="sourcePoint" />
            <mxPoint x="193.8901098901099" y="378" as="targetPoint" />
          </mxGeometry>
        </mxCell>
        <mxCell id="AJUkQtCNoXOJ8t4KscYt-106" value="" style="endArrow=classic;html=1;labelBackgroundColor=#000000;fontSize=19;" edge="1" parent="AJUkQtCNoXOJ8t4KscYt-1" source="AJUkQtCNoXOJ8t4KscYt-92" target="AJUkQtCNoXOJ8t4KscYt-104">
          <mxGeometry width="50" height="50" relative="1" as="geometry">
            <mxPoint x="214.1098901098901" y="372.5" as="sourcePoint" />
            <mxPoint x="203.8901098901099" y="388" as="targetPoint" />
          </mxGeometry>
        </mxCell>
        <mxCell id="AJUkQtCNoXOJ8t4KscYt-107" value="" style="endArrow=classic;html=1;labelBackgroundColor=#000000;fontSize=19;" edge="1" parent="AJUkQtCNoXOJ8t4KscYt-1" source="AJUkQtCNoXOJ8t4KscYt-92" target="AJUkQtCNoXOJ8t4KscYt-103">
          <mxGeometry width="50" height="50" relative="1" as="geometry">
            <mxPoint x="224.1098901098901" y="382.5" as="sourcePoint" />
            <mxPoint x="213.8901098901099" y="398" as="targetPoint" />
          </mxGeometry>
        </mxCell>
        <mxCell id="AJUkQtCNoXOJ8t4KscYt-109" value="" style="verticalLabelPosition=bottom;html=1;verticalAlign=top;align=center;strokeColor=#6c8ebf;fillColor=#dae8fc;shape=mxgraph.azure.computer;pointerEvents=1;fontSize=19;" vertex="1" parent="AJUkQtCNoXOJ8t4KscYt-1">
          <mxGeometry x="131.5" y="472.5" width="30" height="30" as="geometry" />
        </mxCell>
        <mxCell id="AJUkQtCNoXOJ8t4KscYt-110" value="" style="verticalLabelPosition=bottom;html=1;verticalAlign=top;align=center;strokeColor=#6c8ebf;fillColor=#dae8fc;shape=mxgraph.azure.computer;pointerEvents=1;fontSize=19;" vertex="1" parent="AJUkQtCNoXOJ8t4KscYt-1">
          <mxGeometry x="186.5" y="472.5" width="30" height="30" as="geometry" />
        </mxCell>
        <mxCell id="AJUkQtCNoXOJ8t4KscYt-111" value="" style="endArrow=classic;html=1;labelBackgroundColor=#000000;fontSize=19;" edge="1" parent="AJUkQtCNoXOJ8t4KscYt-1" source="AJUkQtCNoXOJ8t4KscYt-102" target="AJUkQtCNoXOJ8t4KscYt-109">
          <mxGeometry width="50" height="50" relative="1" as="geometry">
            <mxPoint x="277.15068493150693" y="407.75" as="sourcePoint" />
            <mxPoint x="265.84931506849307" y="432.5" as="targetPoint" />
          </mxGeometry>
        </mxCell>
        <mxCell id="AJUkQtCNoXOJ8t4KscYt-112" value="" style="endArrow=classic;html=1;labelBackgroundColor=#000000;fontSize=19;" edge="1" parent="AJUkQtCNoXOJ8t4KscYt-1" source="AJUkQtCNoXOJ8t4KscYt-102" target="AJUkQtCNoXOJ8t4KscYt-110">
          <mxGeometry width="50" height="50" relative="1" as="geometry">
            <mxPoint x="287.15068493150693" y="417.75" as="sourcePoint" />
            <mxPoint x="275.84931506849307" y="442.5" as="targetPoint" />
          </mxGeometry>
        </mxCell>
        <mxCell id="AJUkQtCNoXOJ8t4KscYt-114" style="edgeStyle=none;rounded=0;orthogonalLoop=1;jettySize=auto;html=1;entryX=0;entryY=0.5;entryDx=0;entryDy=0;labelBackgroundColor=#000000;fontSize=19;" edge="1" parent="AJUkQtCNoXOJ8t4KscYt-1" source="AJUkQtCNoXOJ8t4KscYt-113" target="AJUkQtCNoXOJ8t4KscYt-113">
          <mxGeometry relative="1" as="geometry" />
        </mxCell>
        <mxCell id="AJUkQtCNoXOJ8t4KscYt-115" value="" style="shape=flexArrow;endArrow=classic;html=1;fontSize=19;entryX=1;entryY=0.5;entryDx=0;entryDy=0;labelBackgroundColor=#000000;labelBorderColor=none;" edge="1" parent="AJUkQtCNoXOJ8t4KscYt-1">
          <mxGeometry width="50" height="50" relative="1" as="geometry">
            <mxPoint x="413.9999999999998" y="332.9999999999999" as="sourcePoint" />
            <mxPoint x="382.0000000000002" y="333.2500000000001" as="targetPoint" />
          </mxGeometry>
        </mxCell>
        <mxCell id="AJUkQtCNoXOJ8t4KscYt-116" value="" style="endArrow=classic;html=1;labelBackgroundColor=#000000;fontSize=19;" edge="1" parent="AJUkQtCNoXOJ8t4KscYt-1">
          <mxGeometry width="50" height="50" relative="1" as="geometry">
            <mxPoint x="710" y="240" as="sourcePoint" />
            <mxPoint x="750" y="240" as="targetPoint" />
          </mxGeometry>
        </mxCell>
        <mxCell id="AJUkQtCNoXOJ8t4KscYt-117" value="" style="endArrow=classic;html=1;labelBackgroundColor=#000000;fontSize=19;" edge="1" parent="AJUkQtCNoXOJ8t4KscYt-1">
          <mxGeometry width="50" height="50" relative="1" as="geometry">
            <mxPoint x="630" y="240" as="sourcePoint" />
            <mxPoint x="590" y="240" as="targetPoint" />
          </mxGeometry>
        </mxCell>
        <mxCell id="AJUkQtCNoXOJ8t4KscYt-119" value="N=m+n" style="text;html=1;strokeColor=none;fillColor=none;align=center;verticalAlign=middle;whiteSpace=wrap;rounded=0;fontSize=20;" vertex="1" parent="AJUkQtCNoXOJ8t4KscYt-1">
          <mxGeometry x="635" y="227.5" width="65" height="20" as="geometry" />
        </mxCell>
      </root>
    </mxGraphModel>
  </diagram>
</mxfile>
